<svg width="10" height="10" viewBox="0 0 10 10" xmlns="http://www.w3.org/2000/svg">
<path d="M5.91616 5.00828L9.80997 1.11435C10.0634 0.861071 10.0634 0.451547 9.80997 0.198263C9.55668 -0.0550201 9.14716 -0.0550201 8.89388 0.198263L4.99995 4.09219L1.10614 0.198263C0.852742 -0.0550201 0.443335 -0.0550201 0.190052 0.198263C-0.0633506 0.451547 -0.0633506 0.861071 0.190052 1.11435L4.08386 5.00828L0.190052 8.9022C-0.0633506 9.15548 -0.0633506 9.56501 0.190052 9.81829C0.316278 9.94464 0.482247 10.0081 0.648098 10.0081C0.813948 10.0081 0.979799 9.94464 1.10614 9.81829L4.99995 5.92437L8.89388 9.81829C9.02022 9.94464 9.18607 10.0081 9.35192 10.0081C9.51777 10.0081 9.68362 9.94464 9.80997 9.81829C10.0634 9.56501 10.0634 9.15548 9.80997 8.9022L5.91616 5.00828Z" fill="currentColor"/>
</svg>
