<svg width="9" height="17" viewBox="0 0 9 17" xmlns="http://www.w3.org/2000/svg">
<path d="M8.67974 6.93901L8.40619 9.23599C8.39438 9.34268 8.34348 9.44122 8.26329 9.51259C8.1831 9.58395 8.07932 9.62309 7.97198 9.62243H5.58382V16.4395C5.5844 16.5209 5.55277 16.5993 5.49583 16.6574C5.43889 16.7156 5.36126 16.7489 5.27987 16.75H2.84612C2.80563 16.7494 2.76566 16.7409 2.72847 16.7249C2.69128 16.7089 2.65761 16.6857 2.62939 16.6566C2.60116 16.6276 2.57893 16.5933 2.56397 16.5557C2.54901 16.5181 2.5416 16.4779 2.54217 16.4374L2.5552 9.62243H0.746711C0.631551 9.62243 0.521107 9.57669 0.439677 9.49526C0.358247 9.41383 0.3125 9.30338 0.3125 9.18822V6.89125C0.3125 6.77609 0.358247 6.66565 0.439677 6.58422C0.521107 6.50279 0.631551 6.45704 0.746711 6.45704H2.54434V4.22954C2.54434 1.6525 4.07711 0.25 6.32198 0.25H8.16086C8.27602 0.25 8.38646 0.295747 8.46789 0.377177C8.54932 0.458607 8.59507 0.569051 8.59507 0.684211V2.61862C8.59507 2.73378 8.54932 2.84422 8.46789 2.92565C8.38646 3.00708 8.27602 3.05283 8.16086 3.05283H7.03408C5.81395 3.07237 5.58382 3.65638 5.58382 4.52914V6.45053H8.25639C8.31736 6.45157 8.37743 6.46545 8.43268 6.49125C8.48794 6.51706 8.53714 6.55421 8.57708 6.6003C8.61701 6.64638 8.6468 6.70036 8.66449 6.75872C8.68218 6.81708 8.68738 6.87851 8.67974 6.93901Z" fill="currentColor"/>
</svg>
