<svg width="17" height="17" viewBox="0 0 17 17" xmlns="http://www.w3.org/2000/svg">
<path d="M11.8347 0.25H5.16526C3.86218 0.251723 2.61297 0.770133 1.69155 1.69155C0.770133 2.61297 0.251723 3.86218 0.25 5.16526V11.8347C0.251723 13.1378 0.770133 14.387 1.69155 15.3084C2.61297 16.2299 3.86218 16.7483 5.16526 16.75H11.8347C13.138 16.7488 14.3875 16.2306 15.3091 15.3091C16.2306 14.3875 16.7488 13.138 16.75 11.8347V5.16526C16.7483 3.86218 16.2299 2.61297 15.3084 1.69155C14.387 0.770133 13.1378 0.251723 11.8347 0.25ZM15.0913 11.8347C15.0913 12.6984 14.7482 13.5268 14.1375 14.1375C13.5268 14.7482 12.6984 15.0913 11.8347 15.0913H5.16526C4.30156 15.0913 3.47324 14.7482 2.86251 14.1375C2.25179 13.5268 1.90868 12.6984 1.90868 11.8347V5.16526C1.90868 4.30156 2.25179 3.47324 2.86251 2.86251C3.47324 2.25179 4.30156 1.90868 5.16526 1.90868H11.8347C12.6984 1.90868 13.5268 2.25179 14.1375 2.86251C14.7482 3.47324 15.0913 4.30156 15.0913 5.16526V11.8347Z" fill="currentColor"/>
<path d="M8.49702 4.23389C7.65265 4.23346 6.82712 4.48348 6.12487 4.95232C5.42262 5.42116 4.87521 6.08775 4.55188 6.86777C4.22856 7.64779 4.14385 8.50618 4.30847 9.33435C4.4731 10.1625 4.87966 10.9233 5.47672 11.5203C6.07378 12.1174 6.83451 12.5239 7.66268 12.6886C8.49085 12.8532 9.34924 12.7685 10.1293 12.4451C10.9093 12.1218 11.5759 11.5744 12.0447 10.8722C12.5136 10.1699 12.7636 9.34438 12.7631 8.50001C12.762 7.36891 12.3122 6.28448 11.5124 5.48467C10.7126 4.68487 9.62812 4.23504 8.49702 4.23389ZM8.49702 11.1053C7.98175 11.1053 7.47805 10.9525 7.04962 10.6662C6.62119 10.3799 6.28726 9.97305 6.09007 9.497C5.89289 9.02095 5.8413 8.49712 5.94182 7.99174C6.04235 7.48637 6.29047 7.02216 6.65482 6.65781C7.01918 6.29345 7.48339 6.04533 7.98876 5.9448C8.49413 5.84428 9.01797 5.89587 9.49402 6.09306C9.97007 6.29024 10.377 6.62417 10.6632 7.0526C10.9495 7.48103 11.1023 7.98473 11.1023 8.50001C11.1023 9.19097 10.8278 9.85362 10.3392 10.3422C9.85064 10.8308 9.18798 11.1053 8.49702 11.1053Z" fill="currentColor"/>
<path d="M12.7895 5.28897C13.3722 5.28897 13.8446 4.81658 13.8446 4.23384C13.8446 3.65111 13.3722 3.17871 12.7895 3.17871C12.2068 3.17871 11.7344 3.65111 11.7344 4.23384C11.7344 4.81658 12.2068 5.28897 12.7895 5.28897Z" fill="currentColor"/>
</svg>
