<svg width="14" height="18" viewBox="0 0 14 18" xmlns="http://www.w3.org/2000/svg">
<path fill-rule="evenodd" clip-rule="evenodd" d="M1.93282 1.93282C3.17039 0.695257 4.84889 0 6.59907 0C8.34925 0 10.0278 0.695257 11.2653 1.93282C12.5029 3.17039 13.1981 4.84889 13.1981 6.59907C13.1981 10.0481 7.44144 17.3036 7.07676 17.7632L7.06701 17.7755C7.01079 17.8456 6.93956 17.9021 6.85857 17.941C6.77758 17.9798 6.6889 18 6.59907 18C6.50924 18 6.42056 17.9798 6.33957 17.941C6.25858 17.9021 6.18735 17.8456 6.13114 17.7755L6.12138 17.7632C5.7567 17.3036 0 10.0481 0 6.59907C0 4.84889 0.695257 3.17039 1.93282 1.93282ZM4.59972 3.00633C5.19166 2.61081 5.88758 2.39971 6.59949 2.39971C7.55414 2.39971 8.46969 2.77894 9.14472 3.45397C9.81976 4.12901 10.199 5.04456 10.199 5.9992C10.199 6.71111 9.98788 7.40704 9.59236 7.99897C9.19685 8.59091 8.63468 9.05226 7.97696 9.3247C7.31924 9.59714 6.5955 9.66842 5.89727 9.52953C5.19904 9.39064 4.55767 9.04783 4.05427 8.54443C3.55087 8.04103 3.20805 7.39966 3.06916 6.70143C2.93028 6.00319 3.00156 5.27946 3.274 4.62173C3.54643 3.96401 4.00779 3.40185 4.59972 3.00633Z" fill="currentColor"/>
</svg>
