<svg width="13" height="21" viewBox="0 0 13 21" xmlns="http://www.w3.org/2000/svg">
<path d="M5.48953 14.6889C3.90077 14.5243 2.46847 14.1332 1.24117 13.1729C1.08545 13.0588 0.935984 12.9363 0.793402 12.8061C0.561235 12.5992 0.412797 12.3146 0.376092 12.0058C0.339386 11.697 0.416952 11.3855 0.594155 11.13C0.771359 10.8745 1.03595 10.6926 1.338 10.6188C1.64006 10.5449 1.95869 10.5842 2.2338 10.7291C2.35691 10.7873 2.47431 10.8568 2.58446 10.9368C3.72144 11.7084 5.06112 12.1268 6.43514 12.1392C7.80917 12.1517 9.15623 11.7578 10.307 11.007C10.5298 10.829 10.7856 10.697 11.0596 10.6185C11.3124 10.5449 11.5825 10.5581 11.8269 10.6558C12.0713 10.7536 12.276 10.9304 12.4083 11.158C12.7455 11.6975 12.7401 12.237 12.3274 12.6631C11.6931 13.3055 10.9263 13.8016 10.0805 14.117C9.25778 14.4121 8.40149 14.6033 7.53144 14.6862C7.66361 14.8291 7.72565 14.8993 7.80117 14.9829C8.98262 16.1697 10.1668 17.3485 11.3428 18.5407C11.5312 18.7101 11.6594 18.9362 11.708 19.1848C11.7567 19.4334 11.7232 19.6912 11.6126 19.9191C11.498 20.168 11.3125 20.3776 11.0793 20.5216C10.8461 20.6655 10.5755 20.7374 10.3016 20.7283C9.98014 20.7015 9.68102 20.5529 9.46545 20.3129C8.57262 19.4174 7.6663 18.5353 6.79236 17.6155C6.5388 17.3458 6.41742 17.3997 6.19354 17.6155C5.29442 18.538 4.3863 19.4497 3.46919 20.3507C3.29917 20.5385 3.0717 20.6648 2.82232 20.7097C2.57294 20.7546 2.31571 20.7156 2.09084 20.5988C1.84659 20.4855 1.64027 20.3041 1.49671 20.0763C1.35315 19.8485 1.27846 19.5841 1.28163 19.3149C1.30721 18.9818 1.46212 18.672 1.71321 18.4517C2.88027 17.2864 4.04913 16.1176 5.21979 14.9451C5.30611 14.8912 5.37624 14.8156 5.48953 14.6889Z" fill="currentColor"/>
<path d="M6.45653 10.6267C5.42865 10.6207 4.42568 10.3097 3.57481 9.73296C2.72394 9.15623 2.0635 8.33982 1.67724 7.38725C1.29097 6.43469 1.19628 5.38887 1.40517 4.38241C1.61406 3.37595 2.11712 2.45419 2.85056 1.73402C3.584 1.01384 4.51478 0.52769 5.52488 0.337206C6.53498 0.146722 7.5789 0.260486 8.52426 0.664074C9.46962 1.06766 10.2738 1.74289 10.8349 2.60415C11.396 3.4654 11.6887 4.47388 11.6759 5.5017C11.6582 6.87179 11.0996 8.17931 10.1219 9.1393C9.14421 10.0993 7.82671 10.6339 6.45653 10.6267ZM9.03252 5.43427C9.03144 4.9318 8.88125 4.44096 8.60098 4.02392C8.3207 3.60687 7.92296 3.2824 7.45812 3.0916C6.99329 2.9008 6.48228 2.85226 5.98983 2.95213C5.49739 3.05199 5.04566 3.29577 4.69188 3.65258C4.3381 4.00939 4.09818 4.46318 4.00251 4.95646C3.90684 5.44974 3.95974 5.96031 4.15449 6.42351C4.34924 6.8867 4.67709 7.28167 5.0965 7.55838C5.51592 7.83509 6.00802 7.98109 6.51048 7.97789C6.8432 7.97683 7.17244 7.91015 7.47936 7.78169C7.78627 7.65322 8.06484 7.46547 8.2991 7.2292C8.53336 6.99294 8.71873 6.71278 8.84458 6.40478C8.97043 6.09678 9.03429 5.76698 9.03252 5.43427Z" fill="currentColor"/>
</svg>
