<svg width="14" height="14" viewBox="0 0 14 14" xmlns="http://www.w3.org/2000/svg">
<path d="M13.9933 11.0462C14.023 11.2734 13.9537 11.471 13.7858 11.639L11.8147 13.5953C11.7257 13.6941 11.6097 13.7781 11.4664 13.8472C11.3231 13.9164 11.1824 13.9609 11.0441 13.9806C11.0342 13.9806 11.0045 13.9831 10.9551 13.9881C10.9057 13.993 10.8415 13.9955 10.7625 13.9955C10.5747 13.9955 10.2708 13.9634 9.8509 13.8992C9.43098 13.8349 8.91721 13.6768 8.30961 13.4249C7.70186 13.1729 7.01271 12.795 6.24206 12.2911C5.4714 11.7873 4.65129 11.0956 3.7818 10.2162C3.09016 9.53443 2.51709 8.88231 2.06259 8.25986C1.60808 7.63736 1.2425 7.06182 0.965847 6.53321C0.689168 6.0046 0.481676 5.52539 0.343349 5.09559C0.205021 4.66579 0.111156 4.29527 0.0617534 3.98403C0.0123507 3.67279 -0.00741041 3.42825 0.00247014 3.2504C0.0123507 3.07255 0.0172909 2.97374 0.0172909 2.95398C0.037052 2.81565 0.0815145 2.67486 0.150678 2.53159C0.219842 2.38832 0.303827 2.27222 0.402632 2.1833L2.3738 0.21213C2.51213 0.0738025 2.67022 0.00463867 2.84807 0.00463867C2.97651 0.00463867 3.09014 0.0416907 3.18894 0.115795C3.28775 0.189899 3.37173 0.281294 3.4409 0.38998L5.02673 3.39861C5.11565 3.5567 5.14035 3.7296 5.10083 3.91734C5.06131 4.10507 4.97732 4.26315 4.84888 4.3916L4.12266 5.11782C4.10289 5.13758 4.0856 5.16969 4.07078 5.21416C4.05596 5.25862 4.04855 5.29567 4.04855 5.32531C4.08807 5.5328 4.177 5.76994 4.31533 6.03671C4.43389 6.27385 4.61668 6.56285 4.8637 6.90373C5.11071 7.24461 5.46147 7.63734 5.91597 8.08196C6.3606 8.53652 6.75582 8.8897 7.10164 9.1417C7.44739 9.39356 7.73649 9.57889 7.96868 9.69746C8.20087 9.81602 8.37872 9.88766 8.50221 9.91229L8.68742 9.94936C8.70718 9.94936 8.73936 9.94193 8.78378 9.92713C8.82824 9.91229 8.86035 9.89502 8.88014 9.87523L9.7249 9.01563C9.90285 8.85756 10.1102 8.77852 10.3474 8.77852C10.5154 8.77852 10.6487 8.80813 10.7475 8.86744H10.7623L13.6227 10.557C13.8303 10.6856 13.9538 10.8485 13.9933 11.0462Z" fill="currentColor"/>
</svg>
