<svg width="28" height="28" viewBox="0 0 28 28" xmlns="http://www.w3.org/2000/svg">
<path d="M20.5215 18.3137C20.2776 18.069 19.9878 17.8748 19.6687 17.7423C19.3497 17.6098 19.0076 17.5416 18.6621 17.5416C18.3166 17.5416 17.9745 17.6098 17.6554 17.7423C17.3364 17.8748 17.0466 18.069 16.8027 18.3137L15.534 19.5824C14.1054 18.6758 12.7819 17.6135 11.5877 16.4149C10.3917 15.2185 9.3296 13.8952 8.4202 12.4687L9.68895 11.1999C9.93367 10.9561 10.1278 10.6663 10.2603 10.3472C10.3928 10.0281 10.461 9.68606 10.461 9.34057C10.461 8.99508 10.3928 8.65299 10.2603 8.33392C10.1278 8.01485 9.93367 7.72507 9.68895 7.48119L7.2127 5.01369C6.97228 4.76816 6.68494 4.57347 6.36778 4.4412C6.05061 4.30892 5.71009 4.24175 5.36646 4.24369C5.02038 4.24285 4.67755 4.31044 4.35769 4.44259C4.03784 4.57473 3.74727 4.76883 3.50271 5.01369L2.31271 6.19494C1.7455 6.80479 1.32218 7.534 1.07385 8.32896C0.825519 9.12392 0.758496 9.96443 0.877706 10.7887C1.15771 14.0699 3.31021 18.0162 6.62646 21.3412C9.9427 24.6662 13.9327 26.8099 17.214 27.1249C17.4588 27.138 17.7041 27.138 17.949 27.1249C18.6553 27.1546 19.3604 27.0429 20.023 26.7965C20.6856 26.5501 21.2924 26.1739 21.8077 25.6899L22.989 24.4999C23.2338 24.2554 23.4279 23.9648 23.5601 23.645C23.6922 23.3251 23.7598 22.9823 23.759 22.6362C23.7609 22.2926 23.6937 21.952 23.5614 21.6349C23.4292 21.3177 23.2345 21.0304 22.989 20.7899L20.5215 18.3137ZM21.7552 23.2662L20.5652 24.4474C20.1252 24.8141 19.6116 25.082 19.059 25.233C18.5065 25.384 17.928 25.4145 17.3627 25.3224C14.519 25.0774 10.8965 23.0649 7.90395 20.0724C4.91145 17.0799 2.89896 13.4837 2.62771 10.6399C2.53335 10.0746 2.56271 9.49555 2.71377 8.94267C2.86483 8.38979 3.13399 7.87625 3.50271 7.43744L4.73646 6.24744C4.81822 6.16635 4.91518 6.10219 5.02179 6.05864C5.12839 6.0151 5.24255 5.99303 5.35771 5.99369C5.47286 5.99303 5.58702 6.0151 5.69362 6.05864C5.80023 6.10219 5.89719 6.16635 5.97895 6.24744L8.4552 8.74994C8.61817 8.91389 8.70965 9.13566 8.70965 9.36682C8.70965 9.59798 8.61817 9.81975 8.4552 9.98369L6.7052 11.7337C6.56826 11.87 6.48027 12.0477 6.45495 12.2392C6.42962 12.4308 6.46839 12.6253 6.56521 12.7924C7.61292 14.5761 8.88635 16.2171 10.354 17.6749C11.8118 19.1426 13.4528 20.416 15.2365 21.4637C15.4036 21.5605 15.5981 21.5993 15.7897 21.574C15.9812 21.5486 16.1589 21.4606 16.2952 21.3237L18.0452 19.5737C18.2091 19.4107 18.4309 19.3193 18.6621 19.3193C18.8932 19.3193 19.115 19.4107 19.279 19.5737L21.7552 22.0499C21.8363 22.1317 21.9005 22.2287 21.944 22.3353C21.9875 22.4419 22.0096 22.556 22.009 22.6712C22.0035 22.8947 21.9127 23.1076 21.7552 23.2662Z" fill="currentColor"/>
<path d="M23.275 4.71628C22.059 3.49563 20.6134 2.52776 19.0215 1.86849C17.4296 1.20921 15.723 0.871569 14 0.875026C13.7679 0.875026 13.5454 0.967214 13.3813 1.13131C13.2172 1.2954 13.125 1.51796 13.125 1.75003C13.125 1.98209 13.2172 2.20465 13.3813 2.36875C13.5454 2.53284 13.7679 2.62503 14 2.62503C15.5019 2.62497 16.989 2.92236 18.3754 3.50001C19.7618 4.07767 21.02 4.92416 22.0776 5.99065C23.1351 7.05713 23.971 8.32249 24.5369 9.71369C25.1029 11.1049 25.3877 12.5944 25.375 14.0963C25.375 14.3283 25.4672 14.5509 25.6313 14.715C25.7954 14.8791 26.0179 14.9713 26.25 14.9713C26.4821 14.9713 26.7046 14.8791 26.8687 14.715C27.0328 14.5509 27.125 14.3283 27.125 14.0963C27.1418 12.355 26.8097 10.6279 26.1485 9.01696C25.4873 7.40599 24.5103 5.9437 23.275 4.71628Z" fill="currentColor"/>
<path d="M18.295 9.72128C18.7916 10.2149 19.1844 10.8028 19.4504 11.4504C19.7164 12.0981 19.8501 12.7924 19.8437 13.4925C19.8437 13.7246 19.9359 13.9472 20.1 14.1113C20.2641 14.2754 20.4867 14.3675 20.7187 14.3675C20.9508 14.3675 21.1734 14.2754 21.3375 14.1113C21.5016 13.9472 21.5937 13.7246 21.5937 13.4925C21.6053 12.5659 21.4328 11.6463 21.0862 10.7869C20.7396 9.92747 20.2258 9.14543 19.5747 8.48612C18.9235 7.82682 18.1479 7.30336 17.2929 6.94612C16.4379 6.58888 15.5204 6.40496 14.5937 6.40503C14.3617 6.40503 14.1391 6.49722 13.975 6.66131C13.8109 6.82541 13.7188 7.04797 13.7188 7.28003C13.7188 7.51209 13.8109 7.73465 13.975 7.89875C14.1391 8.06284 14.3617 8.15503 14.5937 8.15503C15.2833 8.16023 15.9651 8.30122 16.6002 8.56996C17.2352 8.8387 17.8112 9.22993 18.295 9.72128Z" fill="currentColor"/>
</svg>
