<svg width="17" height="15" viewBox="0 0 17 15" xmlns="http://www.w3.org/2000/svg">
<path d="M16.7169 2.50654C16.3269 3.09239 15.8503 3.61576 15.3035 4.05884C15.2346 4.11629 15.1793 4.18839 15.1418 4.26988C15.1042 4.35138 15.0853 4.44023 15.0864 4.52996V4.58423C15.0801 5.76081 14.8639 6.92683 14.4481 8.02752C14.0197 9.18277 13.3832 10.2497 12.5702 11.1755C11.4776 12.4193 10.0721 13.3481 8.49945 13.8655C7.46609 14.2009 6.38572 14.3687 5.29932 14.3626C3.5758 14.3624 1.88301 13.9063 0.392741 13.0405C0.339338 13.0101 0.2973 12.9632 0.273007 12.9067C0.248714 12.8503 0.243493 12.7875 0.258136 12.7278C0.273163 12.6691 0.307405 12.6172 0.355407 12.5802C0.403409 12.5432 0.462408 12.5233 0.523004 12.5238H0.935504C2.24529 12.527 3.52611 12.1384 4.61327 11.4078C3.96537 11.3029 3.35902 11.0212 2.86102 10.5937C2.36302 10.1662 1.99271 9.60949 1.7909 8.98495C1.78056 8.95368 1.77869 8.92022 1.78546 8.88799C1.79224 8.85575 1.80742 8.82588 1.82947 8.80141C1.85151 8.77694 1.87964 8.75873 1.911 8.74864C1.94235 8.73855 1.97582 8.73694 2.008 8.74397C2.20558 8.78114 2.40617 8.80004 2.60721 8.80041H2.6832C2.05702 8.51273 1.52757 8.04984 1.15886 7.46768C0.790141 6.88552 0.597946 6.20902 0.605504 5.51995C0.605728 5.48771 0.614298 5.45608 0.630379 5.42813C0.64646 5.40018 0.669504 5.37688 0.697267 5.36048C0.725031 5.34409 0.756568 5.33516 0.788806 5.33457C0.821044 5.33398 0.852885 5.34175 0.881228 5.35713C1.13592 5.49932 1.40922 5.60528 1.6932 5.67193C1.13188 5.11658 0.770826 4.39057 0.666699 3.60785C0.562572 2.82513 0.721263 2.02998 1.11787 1.3472C1.13288 1.32097 1.15402 1.29878 1.17949 1.28253C1.20496 1.26627 1.23399 1.25644 1.2641 1.25388C1.2942 1.25132 1.32448 1.2561 1.35233 1.26782C1.38018 1.27953 1.40477 1.29783 1.42399 1.32114C2.20813 2.29204 3.17928 3.09557 4.27982 3.68406C5.38036 4.27256 6.58788 4.63404 7.83076 4.74706H7.84813C7.86639 4.74653 7.88435 4.74229 7.90092 4.7346C7.91749 4.7269 7.93232 4.71592 7.94451 4.70231C7.95669 4.6887 7.96598 4.67275 7.97181 4.65544C7.97764 4.63813 7.97988 4.61981 7.9784 4.6016C7.92993 4.1659 7.95785 3.72508 8.0609 3.29897C8.20097 2.71976 8.48852 2.18665 8.89557 1.75144C9.30263 1.31623 9.81536 0.993729 10.3839 0.815288C10.7487 0.701339 11.1285 0.642792 11.5107 0.641604C12.3772 0.640605 13.2142 0.95641 13.8641 1.52956C13.9483 1.60489 14.0573 1.64661 14.1702 1.6468C14.2069 1.64602 14.2433 1.64091 14.2788 1.6316C14.8894 1.4773 15.4745 1.23524 16.0156 0.912985C16.048 0.893008 16.0858 0.883531 16.1238 0.885851C16.1617 0.888171 16.1981 0.902175 16.2278 0.925946C16.2575 0.949716 16.2791 0.982091 16.2897 1.01864C16.3003 1.05518 16.2994 1.09411 16.287 1.13009C16.1063 1.69844 15.7844 2.21163 15.3513 2.6216C15.7415 2.52858 16.1223 2.39995 16.4889 2.23733C16.5251 2.22336 16.5647 2.221 16.6023 2.2306C16.6399 2.24019 16.6736 2.26125 16.6987 2.29085C16.7237 2.32046 16.7389 2.35713 16.7422 2.39578C16.7455 2.43444 16.7366 2.47315 16.7169 2.50654Z" fill="currentColor"/>
</svg>
