<svg width="28" height="28" viewBox="0 0 28 28" xmlns="http://www.w3.org/2000/svg">
<path d="M13.7988 13.4877C15.6517 13.4877 17.256 12.8231 18.5672 11.5119C19.878 10.2009 20.5428 8.59682 20.5428 6.74364C20.5428 4.8911 19.8782 3.2868 18.567 1.97537C17.2558 0.66458 15.6515 0 13.7988 0C11.9456 0 10.3415 0.66458 9.03048 1.97558C7.71948 3.28658 7.05469 4.89089 7.05469 6.74364C7.05469 8.59682 7.71948 10.2011 9.03048 11.5121C10.3419 12.8229 11.9462 13.4877 13.7988 13.4877ZM10.1909 3.13577C11.1968 2.12982 12.3769 1.64084 13.7988 1.64084C15.2204 1.64084 16.4007 2.12982 17.4068 3.13577C18.4128 4.14193 18.902 5.32219 18.902 6.74364C18.902 8.16551 18.4128 9.34556 17.4068 10.3517C16.4007 11.3579 15.2204 11.8469 13.7988 11.8469C12.3773 11.8469 11.1973 11.3577 10.1909 10.3517C9.18472 9.34578 8.69552 8.16551 8.69552 6.74364C8.69552 5.32219 9.18472 4.14193 10.1909 3.13577Z" fill="currentColor"/>
<path d="M25.6008 21.5307C25.5629 20.9851 25.4865 20.3899 25.3739 19.7614C25.2602 19.1283 25.1139 18.5297 24.9387 17.9826C24.7576 17.4171 24.5117 16.8587 24.2073 16.3236C23.8918 15.7682 23.5209 15.2845 23.1048 14.8866C22.6696 14.4702 22.1369 14.1355 21.5208 13.8913C20.9068 13.6484 20.2264 13.5254 19.4986 13.5254C19.2128 13.5254 18.9364 13.6426 18.4025 13.9902C18.074 14.2045 17.6897 14.4523 17.2607 14.7263C16.8939 14.96 16.397 15.179 15.7833 15.3773C15.1845 15.571 14.5765 15.6693 13.9763 15.6693C13.3764 15.6693 12.7684 15.571 12.1692 15.3773C11.5561 15.1792 11.059 14.9603 10.6929 14.7266C10.268 14.455 9.88347 14.2072 9.55 13.99C9.01659 13.6424 8.74016 13.5251 8.45433 13.5251C7.72631 13.5251 7.04613 13.6484 6.4324 13.8915C5.81674 14.1353 5.28375 14.47 4.84817 14.8868C4.43203 15.285 4.06118 15.7684 3.74588 16.3236C3.44189 16.8587 3.1958 17.4169 3.01465 17.9828C2.83969 18.5299 2.69336 19.1283 2.57971 19.7614C2.46692 20.3891 2.39066 20.9844 2.35284 21.5313C2.31567 22.066 2.29688 22.6225 2.29688 23.1847C2.29688 24.6463 2.7615 25.8296 3.67773 26.7022C4.58264 27.5634 5.77978 28 7.23604 28H20.7182C22.174 28 23.3712 27.5634 24.2763 26.7022C25.1927 25.8302 25.6574 24.6466 25.6574 23.1845C25.6572 22.6203 25.6381 22.0639 25.6008 21.5307ZM23.1449 25.5134C22.547 26.0825 21.7532 26.3592 20.718 26.3592H7.23604C6.20061 26.3592 5.40679 26.0825 4.80908 25.5136C4.22268 24.9555 3.93771 24.1935 3.93771 23.1847C3.93771 22.6601 3.95501 22.142 3.98962 21.6447C4.02337 21.1568 4.09237 20.6208 4.1947 20.0513C4.29574 19.4888 4.42434 18.961 4.5773 18.4831C4.72406 18.0249 4.92422 17.5712 5.17245 17.1341C5.40936 16.7175 5.68194 16.3601 5.98272 16.0722C6.26406 15.8028 6.61867 15.5823 7.03652 15.417C7.42296 15.264 7.85726 15.1803 8.32872 15.1677C8.38619 15.1982 8.48851 15.2566 8.65428 15.3647C8.99159 15.5845 9.38039 15.8353 9.8102 16.1098C10.2947 16.4187 10.9189 16.6977 11.6647 16.9384C12.4271 17.1849 13.2047 17.3101 13.9765 17.3101C14.7483 17.3101 15.5261 17.1849 16.2881 16.9386C17.0345 16.6974 17.6585 16.4187 18.1436 16.1093C18.5835 15.8282 18.9614 15.5847 19.2987 15.3647C19.4644 15.2568 19.5668 15.1982 19.6242 15.1677C20.0959 15.1803 20.5302 15.264 20.9169 15.417C21.3345 15.5823 21.6891 15.803 21.9705 16.0722C22.2712 16.3599 22.5438 16.7173 22.7807 17.1343C23.0292 17.5712 23.2295 18.0251 23.3761 18.4829C23.5293 18.9614 23.6581 19.4891 23.7589 20.0511C23.861 20.6217 23.9302 21.1579 23.964 21.6449V21.6454C23.9988 22.1408 24.0163 22.6586 24.0165 23.1847C24.0163 24.1937 23.7313 24.9555 23.1449 25.5134Z" fill="currentColor"/>
</svg>
