<svg width="17" height="19" viewBox="0 0 17 19" xmlns="http://www.w3.org/2000/svg">
<path d="M10.2401 0.815674H6.76645C5.15421 0.815674 3.60801 1.45613 2.46798 2.59616C1.32796 3.73618 0.687501 5.28238 0.687501 6.89462V9.49988C0.687016 10.6507 1.0132 11.778 1.62812 12.7507C2.24304 13.7234 3.12143 14.5016 4.16118 14.9948V17.8975C4.16222 17.9541 4.17976 18.0092 4.21166 18.056C4.24356 18.1028 4.28842 18.1393 4.34075 18.161C4.39308 18.1827 4.4506 18.1886 4.50624 18.178C4.56189 18.1675 4.61325 18.1409 4.65401 18.1016L7.17677 15.5788H10.2401C11.8524 15.5788 13.3986 14.9384 14.5386 13.7983C15.6786 12.6583 16.3191 11.1121 16.3191 9.49988V6.89462C16.3191 5.28238 15.6786 3.73618 14.5386 2.59616C13.3986 1.45613 11.8524 0.815674 10.2401 0.815674ZM12.5154 12.2094L11.647 13.0778C10.7221 13.9831 8.30789 12.9497 6.18026 10.7765C4.05263 8.60324 3.11908 6.16515 4.00921 5.25982L4.87763 4.3914C5.04783 4.23862 5.26913 4.1552 5.49783 4.15761C5.72653 4.16002 5.94602 4.24809 6.11296 4.40442L7.38085 5.70706C7.48155 5.81097 7.55417 5.93878 7.59187 6.07848C7.62958 6.21818 7.63113 6.36518 7.5964 6.50564C7.56166 6.64611 7.49177 6.77544 7.3933 6.88146C7.29483 6.98748 7.17101 7.06672 7.03349 7.11173C6.82964 7.17427 6.65772 7.31292 6.55341 7.49889C6.44911 7.68486 6.42044 7.90386 6.47335 8.11041C6.69046 9.07436 7.91493 10.2815 8.82677 10.5181C9.03235 10.5671 9.24873 10.5394 9.43537 10.4403C9.62201 10.3412 9.76611 10.1774 9.84066 9.97969C9.88882 9.84177 9.97167 9.71858 10.0812 9.62195C10.1908 9.52533 10.3234 9.45854 10.4662 9.42801C10.6091 9.39747 10.7574 9.40422 10.8969 9.44761C11.0364 9.491 11.1624 9.56956 11.2627 9.67574L12.5284 10.9784C12.6804 11.1481 12.7634 11.3686 12.761 11.5964C12.7586 11.8242 12.671 12.0429 12.5154 12.2094ZM9.29355 4.94067C9.2072 4.94026 9.1209 4.94534 9.0352 4.95587C8.99742 4.96001 8.9592 4.95666 8.92272 4.94602C8.88623 4.93538 8.8522 4.91767 8.82257 4.89388C8.79293 4.87009 8.76827 4.84069 8.75 4.80737C8.73172 4.77406 8.72019 4.73746 8.71605 4.69969C8.71192 4.66191 8.71526 4.62369 8.7259 4.58721C8.73654 4.55072 8.75426 4.51669 8.77805 4.48706C8.80184 4.45742 8.83123 4.43276 8.86455 4.41449C8.89787 4.39621 8.93446 4.38468 8.97224 4.38054C9.07889 4.36826 9.18619 4.36246 9.29355 4.36317C10.0619 4.3626 10.799 4.66711 11.3429 5.20978C11.8868 5.75245 12.1929 6.48887 12.1941 7.25719C12.1948 7.36454 12.189 7.47185 12.1767 7.5785C12.1726 7.61628 12.161 7.65287 12.1428 7.68619C12.1245 7.71951 12.0998 7.7489 12.0702 7.77269C12.0406 7.79648 12.0065 7.8142 11.97 7.82484C11.9336 7.83547 11.8953 7.83882 11.8576 7.83469C11.8198 7.83055 11.7832 7.81902 11.7499 7.80074C11.7166 7.78247 11.6872 7.75781 11.6634 7.72817C11.6396 7.69854 11.6219 7.66451 11.6112 7.62802C11.6006 7.59154 11.5972 7.55332 11.6014 7.51554C11.6108 7.42974 11.6159 7.34351 11.6166 7.25719C11.6154 6.64203 11.3701 6.0525 10.9345 5.61813C10.4989 5.18376 9.9087 4.9401 9.29355 4.94067ZM11.0304 7.25719C11.0241 7.32973 10.9909 7.39727 10.9372 7.44648C10.8835 7.4957 10.8134 7.523 10.7406 7.523C10.6677 7.523 10.5976 7.4957 10.5439 7.44648C10.4903 7.39727 10.457 7.32973 10.4507 7.25719C10.4507 6.95029 10.3288 6.65595 10.1118 6.43894C9.89478 6.22193 9.60045 6.10002 9.29355 6.10002C9.25338 6.1035 9.21293 6.09859 9.17475 6.0856C9.13658 6.07262 9.10152 6.05184 9.07181 6.02459C9.04209 5.99733 9.01836 5.9642 9.00213 5.92729C8.9859 5.89038 8.97752 5.8505 8.97752 5.81018C8.97752 5.76986 8.9859 5.72998 9.00213 5.69307C9.01836 5.65616 9.04209 5.62303 9.07181 5.59577C9.10152 5.56852 9.13658 5.54774 9.17475 5.53476C9.21293 5.52177 9.25338 5.51686 9.29355 5.52034C9.75419 5.52034 10.196 5.70333 10.5217 6.02905C10.8474 6.35478 11.0304 6.79655 11.0304 7.25719ZM13.2384 8.19725C13.2319 8.23672 13.2174 8.27444 13.1958 8.30806C13.1741 8.34168 13.1458 8.37047 13.1125 8.39264C13.0792 8.41481 13.0417 8.42989 13.0024 8.43692C12.963 8.44395 12.9226 8.4428 12.8837 8.43352C12.8448 8.42425 12.8083 8.40705 12.7763 8.38301C12.7444 8.35897 12.7177 8.3286 12.698 8.2938C12.6783 8.259 12.666 8.22051 12.6619 8.18074C12.6577 8.14097 12.6618 8.10077 12.6739 8.06265C12.7366 7.80024 12.7679 7.53132 12.7672 7.26153C12.7672 6.34025 12.4013 5.45671 11.7498 4.80526C11.0984 4.15382 10.2148 3.78784 9.29355 3.78784C9.20454 3.78784 9.11335 3.78784 9.02434 3.78784C8.98642 3.7907 8.94831 3.78605 8.91219 3.77417C8.87606 3.7623 8.84263 3.74342 8.81381 3.71862C8.75558 3.66854 8.71964 3.59739 8.71388 3.52081C8.70812 3.44422 8.73302 3.36849 8.7831 3.31027C8.83318 3.25205 8.90434 3.2161 8.98092 3.21034C9.08513 3.20166 9.18934 3.19732 9.29355 3.19732C10.3692 3.19904 11.4001 3.62754 12.1601 4.38873C12.9201 5.14991 13.3469 6.18157 13.3469 7.25719C13.347 7.57368 13.3106 7.88912 13.2384 8.19725Z" fill="currentColor"/>
</svg>
