<svg width="21" height="13" viewBox="0 0 21 13" xmlns="http://www.w3.org/2000/svg">
<path d="M19.9528 12.3587C19.4727 12.4261 17.1395 12.3587 17.0181 12.3587C16.4149 12.3648 15.8335 12.1332 15.3997 11.714C14.906 11.2393 14.461 10.716 13.9889 10.2224C13.8456 10.0719 13.6915 9.93219 13.5277 9.8043C13.142 9.51029 12.7616 9.57772 12.5809 10.0309C12.4394 10.522 12.3419 11.0248 12.2896 11.5333C12.2812 11.7475 12.1881 11.9496 12.0308 12.0952C11.8736 12.2409 11.6649 12.3182 11.4507 12.3102C11.1324 12.3263 10.8141 12.3344 10.4985 12.3263C9.35051 12.3204 8.22014 12.0431 7.19967 11.5171C6.09801 10.9015 5.13774 10.0616 4.38092 9.05174C3.17002 7.4528 2.12354 5.73577 1.25737 3.92674C1.21151 3.83503 0.302496 1.90101 0.280917 1.812C0.22456 1.68527 0.21918 1.5417 0.265892 1.4111C0.312605 1.28051 0.407822 1.17292 0.531773 1.11069C0.693615 1.04865 3.69039 1.11069 3.73894 1.11069C3.9621 1.10856 4.18008 1.17782 4.36109 1.30836C4.54209 1.43889 4.67663 1.62387 4.74506 1.83628C5.2993 3.24925 6.0562 4.57405 6.99197 5.76904C7.12249 5.9301 7.27611 6.07099 7.44783 6.18713C7.49208 6.22985 7.54695 6.25998 7.60675 6.27439C7.66655 6.2888 7.72911 6.28697 7.78796 6.26909C7.84682 6.25121 7.89983 6.21794 7.94151 6.1727C7.9832 6.12747 8.01204 6.07192 8.02506 6.01181C8.14362 5.62181 8.21338 5.21863 8.23276 4.81147C8.24894 4.00226 8.23276 3.46279 8.1869 2.65358C8.20321 2.37782 8.11011 2.10675 7.92781 1.8992C7.74551 1.69165 7.48872 1.56436 7.21315 1.54496C6.97579 1.5045 6.94342 1.31029 7.10796 1.11608C7.42355 0.714173 7.86052 0.649437 8.33526 0.62516C9.05276 0.5847 9.77296 0.62516 10.4932 0.62516H10.6496C10.9658 0.624374 11.2812 0.656008 11.591 0.719568C11.7721 0.756662 11.9364 0.851279 12.0594 0.989321C12.1823 1.12736 12.2574 1.30144 12.2734 1.48562C12.3098 1.68944 12.326 1.89633 12.322 2.10332C12.3031 2.98536 12.2599 3.8674 12.2491 4.75213C12.2427 5.10159 12.2744 5.45071 12.3435 5.79332C12.4487 6.26266 12.7697 6.38134 13.0988 6.03878C13.5089 5.59862 13.8849 5.12792 14.2236 4.63075C14.8326 3.7255 15.3341 2.75239 15.718 1.73108C15.9257 1.20779 16.0848 1.0918 16.6485 1.0918H19.8287C20.0185 1.08864 20.2076 1.1141 20.3898 1.16733C20.4541 1.18447 20.5142 1.21465 20.5663 1.25598C20.6185 1.29731 20.6615 1.34892 20.6929 1.4076C20.7243 1.46628 20.7432 1.53078 20.7486 1.5971C20.754 1.66342 20.7457 1.73014 20.7243 1.79312C20.5383 2.46979 20.2192 3.10255 19.7856 3.6543C19.1382 4.56871 18.4585 5.46154 17.7949 6.35167C17.711 6.46814 17.6344 6.58976 17.5657 6.71582C17.3175 7.16358 17.3364 7.41713 17.6951 7.79477C18.2724 8.38819 18.8901 8.94654 19.4457 9.55615C19.8555 10.0003 20.2256 10.4796 20.5516 10.9884C20.9616 11.6466 20.7108 12.2508 19.9528 12.3587Z" fill="currentColor"/>
</svg>
