<svg width="18" height="18" viewBox="0 0 18 18" xmlns="http://www.w3.org/2000/svg">
<path d="M15.3484 2.65016C13.8506 1.13537 11.8606 0.206011 9.7376 0.0298597C7.61463 -0.146291 5.49863 0.442379 3.77163 1.68959C2.04464 2.9368 0.820456 4.76036 0.320108 6.83104C-0.18024 8.90171 0.0762177 11.083 1.04318 12.9812L0.0958105 17.5807C0.0856667 17.6266 0.0852736 17.6742 0.0946568 17.7203C0.10404 17.7664 0.122991 17.81 0.150284 17.8483C0.189371 17.9063 0.245243 17.951 0.310424 17.9764C0.375606 18.0018 0.446988 18.0067 0.515021 17.9904L5.01502 16.9223C6.90798 17.8639 9.07366 18.1032 11.1266 17.5977C13.1795 17.0922 14.9864 15.8747 16.2257 14.1618C17.465 12.4489 18.0564 10.3518 17.8944 8.24381C17.7325 6.1358 16.8278 4.15364 15.3413 2.65016H15.3484ZM13.9416 13.8694C12.9057 14.9034 11.5718 15.5868 10.1273 15.8234C8.68292 16.0601 7.20066 15.838 5.88897 15.1886L5.25897 14.8759L2.49502 15.5296V15.4941L3.07765 12.7065L2.76976 12.1002C2.09907 10.7849 1.86226 9.291 2.09331 7.8328C2.32436 6.37461 3.01139 5.02708 4.05581 3.98358C5.36722 2.67353 7.14505 1.93767 8.9987 1.93767C10.8524 1.93767 12.6302 2.67353 13.9416 3.98358L13.9724 4.02621C15.2668 5.34042 15.9893 7.1129 15.9827 8.95748C15.976 10.8021 15.2407 12.5693 13.9369 13.8741L13.9416 13.8694Z" fill="currentColor"/>
<path d="M13.6946 11.8421C13.3559 12.375 12.8183 13.0263 12.148 13.1897C10.9638 13.4739 9.16143 13.1897 6.90433 11.1031L6.87591 11.0771C4.91248 9.24391 4.39143 7.71628 4.50748 6.50602C4.57617 5.81681 5.14932 5.19628 5.63248 4.78892C5.7093 4.72414 5.80021 4.67824 5.89793 4.65487C5.99566 4.6315 6.09749 4.63132 6.1953 4.65433C6.29311 4.67735 6.38418 4.72292 6.46124 4.78741C6.53829 4.85191 6.59919 4.93353 6.63906 5.02576L7.36617 6.66944C7.41364 6.77524 7.43144 6.89197 7.41767 7.00711C7.4039 7.12226 7.35909 7.23149 7.28801 7.32312L6.91854 7.7968C6.84174 7.89513 6.79599 8.01412 6.78714 8.13856C6.77828 8.26301 6.80671 8.38728 6.8688 8.49549C7.21976 9.01276 7.63969 9.4797 8.11696 9.88338C8.63047 10.3776 9.21282 10.7948 9.84591 11.1221C9.96146 11.1686 10.0882 11.1798 10.2101 11.154C10.332 11.1283 10.4435 11.0669 10.5304 10.9776L10.9543 10.5465C11.035 10.4598 11.1381 10.3971 11.2522 10.3653C11.3663 10.3335 11.487 10.334 11.6009 10.3665L13.3299 10.8615C13.4278 10.8894 13.5179 10.94 13.5927 11.0091C13.6675 11.0782 13.725 11.164 13.7605 11.2595C13.796 11.3549 13.8085 11.4574 13.7971 11.5586C13.7856 11.6598 13.7505 11.7569 13.6946 11.8421Z" fill="currentColor"/>
</svg>
