<svg width="17" height="13" viewBox="0 0 17 13" xmlns="http://www.w3.org/2000/svg">
<path d="M16.3639 2.53122C16.0339 1.50649 14.9418 0.900764 13.9279 0.759646C10.3139 0.375365 6.66934 0.375365 3.05531 0.759646C2.05012 0.900764 0.958079 1.51517 0.628079 2.53122C0.113557 5.15273 0.113557 7.84926 0.628079 10.4708C0.966763 11.4933 2.0588 12.1012 3.07268 12.2423C6.68682 12.6244 10.3312 12.6244 13.9453 12.2423C14.9505 12.1012 16.0425 11.4846 16.3725 10.4708C16.8842 7.8487 16.8813 5.15217 16.3639 2.53122ZM6.52683 9.66096V3.33886L11.6744 6.49991C9.93972 7.5659 8.25498 8.60366 6.52683 9.66096Z" fill="currentColor"/>
</svg>
