<svg width="40" height="40" viewBox="0 0 40 40" xmlns="http://www.w3.org/2000/svg">
<path d="M22.9977 17C22.9977 16.7348 22.8924 16.4804 22.7049 16.2929C22.5173 16.1054 22.263 16 21.9977 16H17.9977V12C17.9977 11.7348 17.8924 11.4804 17.7049 11.2929C17.5173 11.1054 17.263 11 16.9977 11C16.7325 11 16.4782 11.1054 16.2906 11.2929C16.1031 11.4804 15.9977 11.7348 15.9977 12V16H11.9977C11.7325 16 11.4782 16.1054 11.2906 16.2929C11.1031 16.4804 10.9977 16.7348 10.9977 17C10.9977 17.2652 11.1031 17.5196 11.2906 17.7071C11.4782 17.8946 11.7325 18 11.9977 18H15.9977V22C15.9977 22.2652 16.1031 22.5196 16.2906 22.7071C16.4782 22.8946 16.7325 23 16.9977 23C17.263 23 17.5173 22.8946 17.7049 22.7071C17.8924 22.5196 17.9977 22.2652 17.9977 22V18H21.9977C22.263 18 22.5173 17.8946 22.7049 17.7071C22.8924 17.5196 22.9977 17.2652 22.9977 17ZM16.9977 6C19.0884 5.99964 21.1359 6.59509 22.9003 7.71657C24.6647 8.83806 26.073 10.4391 26.9602 12.3322C27.8473 14.2253 28.1766 16.3321 27.9095 18.4056C27.6423 20.4791 26.7898 22.4336 25.4517 24.04L33.7057 32.292C33.8829 32.4684 33.9876 32.7047 33.9992 32.9544C34.0107 33.2042 33.9283 33.4492 33.7682 33.6412C33.6081 33.8332 33.3819 33.9582 33.1341 33.9917C32.8864 34.0252 32.6351 33.9646 32.4297 33.822L32.2897 33.708L24.0378 25.454C22.6801 26.5842 21.0703 27.3708 19.3445 27.7473C17.6186 28.1237 15.8274 28.0791 14.1225 27.617C12.4175 27.1549 10.8489 26.289 9.54939 25.0925C8.24984 23.896 7.25755 22.4042 6.65645 20.7431C6.05535 19.0821 5.86313 17.3007 6.09603 15.5497C6.32894 13.7986 6.98013 12.1294 7.99451 10.6833C9.0089 9.23709 10.3567 8.05649 11.9238 7.24132C13.4909 6.42614 15.2313 6.00036 16.9977 6ZM16.9977 8C14.6108 8 12.3216 8.94821 10.6338 10.636C8.94596 12.3239 7.99775 14.6131 7.99775 17C7.99775 19.3869 8.94596 21.6761 10.6338 23.364C12.3216 25.0518 14.6108 26 16.9977 26C19.3847 26 21.6739 25.0518 23.3617 23.364C25.0495 21.6761 25.9977 19.3869 25.9977 17C25.9977 14.6131 25.0495 12.3239 23.3617 10.636C21.6739 8.94821 19.3847 8 16.9977 8Z" fill="currentColor"/>
</svg>
