<svg width="60" height="60" viewBox="0 0 60 60" fill="none" xmlns="http://www.w3.org/2000/svg">
<path d="M4.6875 29.0625V42.1875H10.3125V38.4375H14.0625V29.0625H4.6875Z" fill="#FFDE76"/>
<path d="M45.9375 58.125H34.6875V47.8125H45.9375V58.125Z" fill="#FFDE76"/>
<path d="M12.1875 23.4375H6.5625V14.0625H12.1875V23.4375Z" fill="#FFDE76"/>
<path d="M55.2591 17.8125H47.8659L46.35 43.5966L44.0625 41.5172V25.3125C44.0625 23.2444 42.3806 21.5625 40.3125 21.5625H39.375V20.625C39.375 18.0403 37.2722 15.9375 34.6875 15.9375H29.0625C26.4778 15.9375 24.375 18.0403 24.375 20.625V21.5625H23.4375C21.3694 21.5625 19.6875 23.2444 19.6875 25.3125V38.4375H17.8125V25.3125H15.9375V11.4028L17.8125 5.77781V0.9375H0.9375V5.77688L2.8125 11.4019V25.3125H0.9375V59.0625H59.0625V49.6875H57.1341L55.2591 17.8125ZM49.6341 19.6875H53.4909L55.2562 49.6875H51.5625V48.3356L48.1322 45.2175L49.6341 19.6875ZM17.2144 40.3125H37.8872L29.6372 47.8125H8.21438L17.2144 40.3125ZM29.0625 32.8125H21.5625V29.0625H29.0625V32.8125ZM34.6875 29.0625H42.1875V32.8125H34.6875V29.0625ZM6.5625 49.6875H29.0625V57.1875H6.5625V49.6875ZM30.9375 49.1644L40.3125 40.6416L49.6875 49.1644V57.1875H30.9375V49.1644ZM40.6753 38.4375H34.6875V34.6875H42.1875V39.8128L40.6753 38.4375ZM42.1875 25.3125V27.1875H34.6875V25.3125C34.6875 24.2784 35.5284 23.4375 36.5625 23.4375H40.3125C41.3466 23.4375 42.1875 24.2784 42.1875 25.3125ZM26.25 20.625C26.25 19.0744 27.5119 17.8125 29.0625 17.8125H34.6875C36.2381 17.8125 37.5 19.0744 37.5 20.625V21.5625H36.5625C34.4944 21.5625 32.8125 23.2444 32.8125 25.3125V38.4375H30.9375V25.3125C30.9375 23.2444 29.2556 21.5625 27.1875 21.5625H26.25V20.625ZM23.4375 23.4375H27.1875C28.2216 23.4375 29.0625 24.2784 29.0625 25.3125V27.1875H21.5625V25.3125C21.5625 24.2784 22.4034 23.4375 23.4375 23.4375ZM21.5625 34.6875H29.0625V38.4375H21.5625V34.6875ZM4.42594 10.3125L3.17531 6.5625H15.5737L14.3241 10.3125H4.42594ZM15.9375 2.8125V4.6875H2.8125V2.8125H15.9375ZM4.6875 12.1875H14.0625V25.3125H4.6875V12.1875ZM2.8125 27.1875H15.9375V38.9363L4.6875 48.3103V57.1875H2.8125V27.1875ZM57.1875 57.1875H51.5625V51.5625H57.1875V57.1875Z" fill="black"/>
<path d="M50.625 6.5625V8.4375H55.3125C56.3466 8.4375 57.1875 9.27844 57.1875 10.3125C57.1875 11.3466 56.3466 12.1875 55.3125 12.1875C53.7619 12.1875 52.5 13.4494 52.5 15V15.9375H54.375V15C54.375 14.4834 54.7959 14.0625 55.3125 14.0625C57.3806 14.0625 59.0625 12.3806 59.0625 10.3125C59.0625 8.24437 57.3806 6.5625 55.3125 6.5625H52.5C52.5 4.49437 50.8181 2.8125 48.75 2.8125H47.8125V4.6875H48.75C49.7841 4.6875 50.625 5.52844 50.625 6.5625Z" fill="black"/>
<path d="M38.4375 14.0625H47.8125C48.3291 14.0625 48.75 14.4834 48.75 15V15.9375H50.625V15C50.625 13.4494 49.3631 12.1875 47.8125 12.1875H38.4375C37.9209 12.1875 37.5 11.7666 37.5 11.25C37.5 10.7334 37.9209 10.3125 38.4375 10.3125H41.25H42.1875H45V8.4375H42.1875H41.25C40.2159 8.4375 39.375 7.59656 39.375 6.5625C39.375 5.52844 40.2159 4.6875 41.25 4.6875H42.1875V2.8125H41.25C39.1819 2.8125 37.5 4.49437 37.5 6.5625C37.5 7.26469 37.7063 7.91437 38.0438 8.47687C36.6797 8.67094 35.625 9.83437 35.625 11.25C35.625 12.8006 36.8869 14.0625 38.4375 14.0625Z" fill="black"/>
<path d="M44.0625 2.8125H45.9375V4.6875H44.0625V2.8125Z" fill="black"/>
<path d="M12.1875 29.0625H14.0625V30.9375H12.1875V29.0625Z" fill="black"/>
<path d="M4.6875 29.0625H6.5625V30.9375H4.6875V29.0625Z" fill="black"/>
<path d="M8.4375 29.0625H10.3125V30.9375H8.4375V29.0625Z" fill="black"/>
<path d="M12.1875 32.8125H14.0625V34.6875H12.1875V32.8125Z" fill="black"/>
<path d="M4.6875 32.8125H6.5625V34.6875H4.6875V32.8125Z" fill="black"/>
<path d="M8.4375 32.8125H10.3125V34.6875H8.4375V32.8125Z" fill="black"/>
<path d="M4.6875 36.5625H6.5625V38.4375H4.6875V36.5625Z" fill="black"/>
<path d="M8.4375 36.5625H10.3125V38.4375H8.4375V36.5625Z" fill="black"/>
<path d="M12.1875 36.5625H14.0625V38.4375H12.1875V36.5625Z" fill="black"/>
<path d="M4.6875 40.3125H6.5625V42.1875H4.6875V40.3125Z" fill="black"/>
<path d="M8.4375 40.3125H10.3125V42.1875H8.4375V40.3125Z" fill="black"/>
</svg>
