<svg width="60" height="60" viewBox="0 0 60 60" fill="none" xmlns="http://www.w3.org/2000/svg">
<path d="M14.5126 15.4837C12.912 15.4837 11.6094 14.1811 11.6094 12.5805C11.6094 10.9798 12.912 9.67725 14.5126 9.67725C16.1132 9.67725 17.4158 10.9798 17.4158 12.5805C17.4158 14.1811 16.1132 15.4837 14.5126 15.4837Z" fill="#FFDE76"/>
<path d="M53.2235 40.6453C51.6229 40.6453 50.3203 39.3427 50.3203 37.7421C50.3203 36.1415 51.6229 34.8389 53.2235 34.8389C54.8242 34.8389 56.1268 36.1415 56.1268 37.7421C56.1268 39.3427 54.8242 40.6453 53.2235 40.6453Z" fill="#FFDE76"/>
<path d="M40.6482 19.355C36.3795 19.355 32.9062 15.8817 32.9062 11.613C32.9062 7.34432 36.3795 3.87109 40.6482 3.87109C44.9169 3.87109 48.3901 7.34432 48.3901 11.613C48.3901 15.8817 44.9169 19.355 40.6482 19.355Z" fill="#FFDE76"/>
<path d="M35.8054 60C32.07 60 29.0312 56.9604 29.0312 53.2258C29.0312 49.4913 32.07 46.4517 35.8054 46.4517C39.5409 46.4517 42.5796 49.4913 42.5796 53.2258C42.5796 56.9604 39.5409 60 35.8054 60ZM35.8054 51.2904C34.738 51.2904 33.87 52.1584 33.87 53.2258C33.87 54.2933 34.738 55.1613 35.8054 55.1613C36.8729 55.1613 37.7409 54.2933 37.7409 53.2258C37.7409 52.1584 36.8729 51.2904 35.8054 51.2904Z" fill="#FFDE76"/>
<path d="M12.5789 60C8.8434 60 5.80469 56.9604 5.80469 53.2258C5.80469 49.4913 8.8434 46.4517 12.5789 46.4517C16.3144 46.4517 19.3531 49.4913 19.3531 53.2258C19.3531 56.9604 16.3144 60 12.5789 60ZM12.5789 51.2904C11.5115 51.2904 10.6434 52.1584 10.6434 53.2258C10.6434 54.2933 11.5115 55.1613 12.5789 55.1613C13.6463 55.1613 14.5144 54.2933 14.5144 53.2258C14.5144 52.1584 13.6463 51.2904 12.5789 51.2904Z" fill="#FFDE76"/>
<path d="M19.2808 54.1934C19.1821 54.8766 18.9827 55.5269 18.6953 56.1289H29.6985C29.4111 55.5269 29.2118 54.8766 29.1131 54.1934H19.2808Z" fill="black"/>
<path d="M54.151 31.0384C54.1655 30.6919 54.1935 30.3455 54.1935 30C54.1935 25.589 52.9897 21.301 50.729 17.5452C51.719 15.8032 52.2581 13.8165 52.2581 11.8026V11.6129C52.2581 5.20935 47.0487 0 40.6452 0C36.3503 0 32.6003 2.34968 30.5913 5.82581C26.8394 5.73968 23.0303 6.54 19.6297 8.15129C18.3861 6.71806 16.5571 5.80645 14.5161 5.80645C10.7806 5.80645 7.74194 8.84613 7.74194 12.5806C7.74194 14.0381 8.22387 15.481 9.09677 16.6442L9.49742 17.1784C7.26097 20.7484 6.00871 24.8119 5.84226 29.0323H3.87097C2.80355 29.0323 1.93548 29.9003 1.93548 30.9677V50.3226C0.868064 50.3226 0 51.1906 0 52.2581V54.1935C0 55.261 0.868064 56.129 1.93548 56.129H6.46935C6.18194 55.5271 5.98258 54.8768 5.88387 54.1935H1.93548V52.2581H5.88387C5.98258 51.5748 6.18194 50.9245 6.46935 50.3226H3.87097V30.9677H11.6129V38.34L16.4516 35.9206L21.2903 38.34V30.9677H29.0323V50.3226H18.6919C18.9794 50.9245 19.1787 51.5748 19.2774 52.2581H29.1097C29.2055 51.5903 29.4019 50.9574 29.6777 50.3671C30.0029 49.6723 30.4365 49.0364 30.9677 48.4935V36.7742H40.1013C40.5455 36.7742 40.9326 37.0761 41.04 37.5068L41.341 38.7097H36.7742C35.7068 38.7097 34.8387 39.5777 34.8387 40.6452V42.5806C34.8387 43.6481 35.7068 44.5161 36.7742 44.5161H42.7926L44.2442 50.3226H41.9177C42.2052 50.9245 42.4045 51.5748 42.5032 52.2581H44.5161V54.1935H42.5032C42.4045 54.8768 42.2052 55.5271 41.9177 56.129H44.5161C45.5835 56.129 46.4516 55.261 46.4516 54.1935V51.5284C46.4516 51.2923 46.4226 51.0561 46.3655 50.8239L45.7461 48.3464C47.1881 47.1087 48.4742 45.7132 49.5861 44.1784L53.2258 49.0326L58.6452 41.8064C59.519 40.6423 60 39.1984 60 37.7419C60 34.3219 57.449 31.4923 54.151 31.0384ZM40.6452 1.93548C45.9813 1.93548 50.3226 6.27677 50.3226 11.6129V11.8016C50.3226 13.9597 49.5881 16.0839 48.2545 17.7803L40.6452 27.4664L33.0358 17.7803C31.7023 16.0839 30.9677 13.9606 30.9677 11.8016V11.6129C30.9677 6.27677 35.309 1.93548 40.6452 1.93548ZM14.5161 7.74193C17.1842 7.74193 19.3548 9.91258 19.3548 12.5806C19.3548 13.621 19.0113 14.6526 18.3871 15.4829L14.5161 20.6448L10.6452 15.4829C10.021 14.6526 9.67742 13.621 9.67742 12.5806C9.67742 9.91258 11.8481 7.74193 14.5161 7.74193ZM19.3548 35.2084L16.4516 33.7568L13.5484 35.2084V30.9677H19.3548V35.2084ZM36.7742 42.5806V40.6452H41.8248L42.3087 42.5806H36.7742ZM45.2177 46.2339L42.9184 37.0374C42.5942 35.7435 41.4358 34.8387 40.1013 34.8387H30.9677V30.9677C30.9677 29.9003 30.0997 29.0323 29.0323 29.0323H7.77677C7.93161 25.4264 8.94193 21.9465 10.7448 18.8429L14.5161 23.8713L19.9355 16.6452C20.8094 15.481 21.2903 14.0371 21.2903 12.5806C21.2903 11.5848 21.0687 10.6413 20.6806 9.78871C23.5161 8.47548 26.5452 7.79032 29.7058 7.75064C29.2781 8.96129 29.0323 10.2571 29.0323 11.6129V11.8016C29.0323 14.3923 29.9139 16.9413 31.5135 18.9764L40.6452 30.5981L49.5194 19.3035C51.3126 22.5706 52.2581 26.2384 52.2581 30C52.2581 30.3494 52.231 30.7006 52.2155 31.0519C48.959 31.5426 46.4516 34.351 46.4516 37.7419C46.4516 39.1994 46.9335 40.6423 47.8064 41.8055L48.3648 42.5506C47.4484 43.889 46.4003 45.1258 45.2177 46.2339ZM57.0968 40.6442L53.2258 45.8061L49.3548 40.6442C48.7306 39.8139 48.3871 38.7823 48.3871 37.7419C48.3871 35.0739 50.5577 32.9032 53.2258 32.9032C55.8939 32.9032 58.0645 35.0739 58.0645 37.7419C58.0645 38.7823 57.721 39.8139 57.0968 40.6442Z" fill="black"/>
<path d="M23.2266 25.1611H25.162V27.0966H23.2266V25.1611Z" fill="black"/>
<path d="M27.0938 25.1611H29.0292V27.0966H27.0938V25.1611Z" fill="black"/>
<path d="M30.9688 25.1611H32.9042V27.0966H30.9688V25.1611Z" fill="black"/>
<path d="M35.8095 50.3228C34.2088 50.3228 32.9062 51.6253 32.9062 53.226C32.9062 54.8266 34.2088 56.1292 35.8095 56.1292C37.4101 56.1292 38.7127 54.8266 38.7127 53.226C38.7127 51.6253 37.4101 50.3228 35.8095 50.3228ZM35.8095 54.1937C35.2763 54.1937 34.8417 53.7602 34.8417 53.226C34.8417 52.6918 35.2763 52.2582 35.8095 52.2582C36.3427 52.2582 36.7772 52.6918 36.7772 53.226C36.7772 53.7602 36.3427 54.1937 35.8095 54.1937Z" fill="black"/>
<path d="M12.5829 50.3228C10.9823 50.3228 9.67969 51.6253 9.67969 53.226C9.67969 54.8266 10.9823 56.1292 12.5829 56.1292C14.1836 56.1292 15.4861 54.8266 15.4861 53.226C15.4861 51.6253 14.1836 50.3228 12.5829 50.3228ZM12.5829 54.1937C12.0497 54.1937 11.6152 53.7602 11.6152 53.226C11.6152 52.6918 12.0497 52.2582 12.5829 52.2582C13.1161 52.2582 13.5507 52.6918 13.5507 53.226C13.5507 53.7602 13.1161 54.1937 12.5829 54.1937Z" fill="black"/>
</svg>
