<svg width="60" height="60" viewBox="0 0 60 60" fill="none" xmlns="http://www.w3.org/2000/svg">
<path d="M30 0C23.0604 0 16.376 2.39148 11.0303 6.7586L5.15625 0.884577C4.59394 0.322266 3.81568 0 3.02041 0C1.35474 0 0 1.35474 0 3.02041C0 3.81568 0.322266 4.59394 0.884577 5.15625L6.7586 11.0303C2.39148 16.376 0 23.0604 0 30C0 46.5428 13.4572 60 30 60C46.5428 60 60 46.5428 60 30C60 13.4572 46.5428 0 30 0ZM1.93548 3.02041C1.93548 2.42219 2.42219 1.93548 3.02041 1.93548C3.30582 1.93548 3.58556 2.05078 3.7878 2.25302L9.27671 7.74194H7.74194V9.27671L2.25302 3.7878C2.05078 3.58556 1.93548 3.30582 1.93548 3.02041ZM1.93548 30C1.93548 23.7891 3.98816 17.8026 7.74194 12.9166V23.6265L40.2378 56.1224C37.0634 57.3708 33.6125 58.0645 30 58.0645C14.5256 58.0645 1.93548 45.4744 1.93548 30ZM42.1483 55.296L9.67742 22.8251V13.9491L10.3276 14.5993C10.6877 14.9594 11.1418 15.2079 11.6266 15.3492C11.6247 15.395 11.6129 15.4376 11.6129 15.4839C11.6129 17.6188 13.349 19.3548 15.4839 19.3548C17.6188 19.3548 19.3548 17.6188 19.3548 15.4839C19.3548 13.349 17.6188 11.6129 15.4839 11.6129C14.0767 11.6129 12.8547 12.3756 12.1771 13.5011C11.998 13.4525 11.8288 13.3636 11.6961 13.2308L9.67742 11.2122V9.67742H22.8251L27.3803 14.2326L28.7487 12.8642L23.6265 7.74194H12.9166C17.8026 3.98816 23.7891 1.93548 30 1.93548C45.4744 1.93548 58.0645 14.5256 58.0645 30C58.0645 33.6125 57.3708 37.0634 56.1224 40.2378L50.0391 34.1545L48.6706 35.5229L55.296 42.1483C52.5331 47.8791 47.8791 52.5331 42.1483 55.296ZM13.5484 15.4839C13.5484 14.4164 14.4164 13.5484 15.4839 13.5484C16.5513 13.5484 17.4194 14.4164 17.4194 15.4839C17.4194 16.5513 16.5513 17.4194 15.4839 17.4194C14.4164 17.4194 13.5484 16.5513 13.5484 15.4839Z" fill="black"/>
<path d="M37.7407 41.6127C28.669 41.6127 21.2891 34.2327 21.2891 25.1611C21.2891 16.0895 28.669 8.70947 37.7407 8.70947C46.8123 8.70947 54.1923 16.0895 54.1923 25.1611C54.1923 34.2327 46.8123 41.6127 37.7407 41.6127Z" fill="#FFDE76"/>
<path d="M32.9022 24.1936C30.7673 24.1936 29.0312 22.4575 29.0312 20.3226C29.0312 18.1877 30.7673 16.4517 32.9022 16.4517C35.0371 16.4517 36.7732 18.1877 36.7732 20.3226C36.7732 22.4575 35.0371 24.1936 32.9022 24.1936ZM32.9022 18.3871C31.8348 18.3871 30.9667 19.2552 30.9667 20.3226C30.9667 21.3901 31.8348 22.2581 32.9022 22.2581C33.9697 22.2581 34.8377 21.3901 34.8377 20.3226C34.8377 19.2552 33.9697 18.3871 32.9022 18.3871Z" fill="black"/>
<path d="M42.5819 33.8708C40.447 33.8708 38.7109 32.1348 38.7109 29.9999C38.7109 27.865 40.447 26.1289 42.5819 26.1289C44.7168 26.1289 46.4529 27.865 46.4529 29.9999C46.4529 32.1348 44.7168 33.8708 42.5819 33.8708ZM42.5819 28.0644C41.5145 28.0644 40.6464 28.9324 40.6464 29.9999C40.6464 31.0673 41.5145 31.9354 42.5819 31.9354C43.6494 31.9354 44.5174 31.0673 44.5174 29.9999C44.5174 28.9324 43.6494 28.0644 42.5819 28.0644Z" fill="black"/>
<path d="M29.3125 32.2192L44.7959 16.7358L46.1643 18.1048L30.6809 33.5882L29.3125 32.2192Z" fill="black"/>
</svg>
