<svg width="60" height="60" viewBox="0 0 60 60" fill="none" xmlns="http://www.w3.org/2000/svg">
<path d="M27.1875 5.625H44.0625V13.125H27.1875V5.625Z" fill="#FFDE76"/>
<path d="M44.0625 30.9375H29.0625V15.9375H44.0625V30.9375Z" fill="#FFDE76"/>
<path d="M19.6875 26.25H27.1875V30H19.6875V26.25Z" fill="#FFDE76"/>
<path d="M57.6591 50.3212L48.0159 45.9375H41.5631C40.3453 45.0384 39.5681 43.6828 39.4106 42.1875H50.625C53.2097 42.1875 55.3125 40.0847 55.3125 37.5V11.25C55.3125 8.66531 53.2097 6.5625 50.625 6.5625H47.8125V0.9375H16.875V0.942187C16.5487 0.94125 16.2225 0.955313 15.8953 0.992813C12.6731 1.3575 9.95438 3.61969 8.90812 6.60938C6.54469 6.84844 4.6875 8.82562 4.6875 11.25V37.5C4.6875 40.0847 6.79031 42.1875 9.375 42.1875H20.5894C20.4319 43.6828 19.6547 45.0384 18.4369 45.9375H7.5C3.88125 45.9375 0.9375 48.8812 0.9375 52.5C0.9375 56.1188 3.88125 59.0625 7.5 59.0625H48.0159L57.66 54.6788C58.5122 54.2916 59.0625 53.4366 59.0625 52.5C59.0625 51.5634 58.5122 50.7084 57.6591 50.3212ZM12.1875 55.3125H44.5312L45.9375 57.1875H12.1875V55.3125ZM44.7159 53.4375H12.1875V51.5625H44.7159L46.1222 52.5L44.7159 53.4375ZM44.5312 49.6875H12.1875V47.8125H45.9375L44.5312 49.6875ZM50.625 8.4375C52.1756 8.4375 53.4375 9.69938 53.4375 11.25V32.8125H47.8125V8.4375H50.625ZM45.9375 2.8125V32.8125H17.8125V23.3044C19.425 22.8853 20.625 21.4294 20.625 19.6875V18.0075C20.625 17.3803 20.9344 16.7916 21.4331 16.4709C23.8622 14.91 25.3125 12.2569 25.3125 9.375C25.3125 6.975 24.285 4.68094 22.4944 3.08156C22.3875 2.985 22.2703 2.9025 22.1588 2.8125H45.9375ZM18.75 19.6875C18.75 20.7216 17.9091 21.5625 16.875 21.5625C15.8409 21.5625 15 20.7216 15 19.6875H18.75ZM15.9375 9.375C15.9375 8.85844 16.3584 8.4375 16.875 8.4375C17.3916 8.4375 17.8125 8.85844 17.8125 9.375C17.8125 9.89156 17.3916 10.3125 16.875 10.3125C16.3584 10.3125 15.9375 9.89156 15.9375 9.375ZM10.3688 8.50781C10.7428 5.56687 13.1569 3.18937 16.1063 2.85563C16.3641 2.82656 16.62 2.8125 16.875 2.8125H16.8928C18.5062 2.81531 20.0287 3.39281 21.2447 4.47937C22.6388 5.72344 23.4375 7.50844 23.4375 9.375C23.4375 11.6156 22.3088 13.6791 20.4188 14.8941C19.4278 15.5306 18.8222 16.6125 18.7612 17.8125H17.8125V12.015C18.9009 11.6269 19.6875 10.5956 19.6875 9.375C19.6875 7.82438 18.4256 6.5625 16.875 6.5625C15.3244 6.5625 14.0625 7.82438 14.0625 9.375C14.0625 10.5956 14.8491 11.6269 15.9375 12.015V17.8125H14.9859C14.9166 16.6022 14.3194 15.5259 13.3472 14.9044C11.1825 13.5216 10.0416 11.0709 10.3688 8.50781ZM8.48906 8.59406C8.20313 11.7647 9.64688 14.7656 12.3366 16.485C12.8231 16.7953 13.1241 17.3944 13.1241 18.0478V19.6875C13.1241 21.4294 14.3241 22.8853 15.9366 23.3044V32.8125H6.5625V11.25C6.5625 10.0106 7.37438 8.96719 8.48906 8.59406ZM6.5625 37.5V34.6875H53.4375V37.5C53.4375 39.0506 52.1756 40.3125 50.625 40.3125H9.375C7.82438 40.3125 6.5625 39.0506 6.5625 37.5ZM22.4653 42.1875H37.5356C37.6425 43.56 38.13 44.8547 38.9344 45.9375H21.0656C21.87 44.8547 22.3575 43.56 22.4653 42.1875ZM2.8125 52.5C2.8125 49.9153 4.91531 47.8125 7.5 47.8125H10.3125V57.1875H7.5C4.91531 57.1875 2.8125 55.0847 2.8125 52.5ZM56.8837 52.9716L48.1097 56.9597L46.3434 54.6056L49.5028 52.5L46.3444 50.3944L48.1106 48.0403L56.8837 52.0284C57.0684 52.1119 57.1875 52.2975 57.1875 52.5C57.1875 52.7025 57.0684 52.8881 56.8837 52.9716Z" fill="black"/>
<path d="M17.8125 36.5625H19.6875V38.4375H17.8125V36.5625Z" fill="black"/>
<path d="M14.0625 36.5625H15.9375V38.4375H14.0625V36.5625Z" fill="black"/>
<path d="M10.3125 36.5625H12.1875V38.4375H10.3125V36.5625Z" fill="black"/>
<path d="M27.1875 4.6875H44.0625V6.5625H27.1875V4.6875Z" fill="black"/>
<path d="M42.1875 8.4375H44.0625V10.3125H42.1875V8.4375Z" fill="black"/>
<path d="M27.1875 8.4375H40.3125V10.3125H27.1875V8.4375Z" fill="black"/>
<path d="M27.1875 12.1875H44.0625V14.0625H27.1875V12.1875Z" fill="black"/>
<path d="M19.6875 29.0625H27.1875V30.9375H19.6875V29.0625Z" fill="black"/>
<path d="M19.6875 25.3125H27.1875V27.1875H19.6875V25.3125Z" fill="black"/>
<path d="M21.5625 21.5625H27.1875V23.4375H21.5625V21.5625Z" fill="black"/>
<path d="M22.5 17.8125H27.1875V19.6875H22.5V17.8125Z" fill="black"/>
</svg>
