<svg width="60" height="60" viewBox="0 0 60 60" fill="none" xmlns="http://www.w3.org/2000/svg">
<g clip-path="url(#clip0_5876_327)">
<path d="M47.4423 11.6479H28.1243C26.5267 11.6479 25.2266 10.3478 25.2266 8.75017V6.81836H50.34V8.75017C50.34 10.3478 49.0399 11.6479 47.4423 11.6479Z" fill="#FFDE76"/>
<path d="M41.6484 48.3525H43.5802V50.2843H41.6484V48.3525Z" fill="black"/>
<path d="M60 16.4775V14.5457C60 9.75286 56.1007 5.85254 51.3069 5.85254H24.2616C23.004 5.85254 21.9415 6.66293 21.5416 7.78435H18.4661C17.2085 7.78435 16.146 8.59474 15.7462 9.71615H10.4173L6.55366 12.6139H4.20554C2.50555 12.6139 0.976529 13.5585 0.215397 15.0798L0 15.5116L0.216362 15.9433C0.977494 17.4646 2.50652 18.4093 4.20554 18.4093H6.55366L10.4173 21.307H15.7462C16.146 22.4284 17.2085 23.2388 18.4661 23.2388H21.5416C21.9415 24.3602 23.004 25.1706 24.2616 25.1706H33.9206V28.0683C33.9206 29.6659 35.2207 30.966 36.8183 30.966H38.5222L41.6478 32.5289V40.6405C40.6365 40.7188 39.744 41.307 39.2843 42.2265L37.7842 45.2266V51.25C37.7842 52.8476 39.0843 54.1477 40.6819 54.1477H56.1364C57.734 54.1477 59.0341 52.8476 59.0341 51.25V45.2266L57.534 42.2265C57.0743 41.308 56.1818 40.7197 55.1705 40.6405V39.6592C55.1705 36.9788 54.6933 34.3477 53.7525 31.8382L53.5681 31.3466C52.8156 29.3394 52.3877 27.2473 52.2931 25.1146C56.6242 24.6239 60 20.938 60 16.4775ZM7.84121 14.0627L9.77301 12.6139V18.4093L7.84121 16.9604V14.0627ZM11.7048 11.648H15.5684V19.3752H11.7048V11.648ZM5.9094 16.4775H4.20554C3.41544 16.4775 2.69004 16.1172 2.21578 15.5116C2.68908 14.906 3.41447 14.5457 4.20554 14.5457H5.9094V16.4775ZM17.5002 20.3411V10.6821C17.5002 10.1498 17.933 9.71615 18.4661 9.71615H21.3639V21.307H18.4661C17.933 21.307 17.5002 20.8733 17.5002 20.3411ZM35.8524 28.0683V25.1706H36.8183C37.3515 25.1706 37.7842 25.6043 37.7842 26.1365V29.0342H36.8183C36.2851 29.0342 35.8524 28.6005 35.8524 28.0683ZM39.716 29.4032V26.1365C39.716 24.5389 38.4159 23.2388 36.8183 23.2388H24.2616C23.7284 23.2388 23.2957 22.8051 23.2957 22.2729V8.75025C23.2957 8.21804 23.7284 7.78435 24.2616 7.78435H51.3069C53.9969 7.78435 56.318 9.36746 57.4066 11.648H52.2728V13.5798H57.9909C58.0363 13.8966 58.0682 14.2173 58.0682 14.5457V15.5116H52.2728V17.4434H57.9909C57.8924 18.1253 57.6934 18.7744 57.4066 19.3752H52.2728C49.0766 19.3752 46.4774 21.9744 46.4774 25.1706V27.1024C46.4774 29.1675 44.845 30.8453 42.804 30.9467L39.716 29.4032ZM56.1364 52.2159H40.6819C40.1488 52.2159 39.716 51.7822 39.716 51.25V46.4205H45.5114V47.3864C45.5114 48.984 46.8116 50.2841 48.4092 50.2841H52.2728C53.8704 50.2841 55.1705 48.984 55.1705 47.3864V46.4205H57.1023V51.25C57.1023 51.7822 56.6696 52.2159 56.1364 52.2159ZM47.4433 46.4205H53.2387V47.3864C53.2387 47.9186 52.806 48.3523 52.2728 48.3523H48.4092C47.876 48.3523 47.4433 47.9186 47.4433 47.3864V46.4205ZM55.806 43.091L56.5054 44.4887H40.313L41.0123 43.091C41.1774 42.7616 41.5087 42.5569 41.8758 42.5569H54.9416C55.3105 42.5569 55.6409 42.7616 55.806 43.091ZM51.7589 32.0256L51.9434 32.5173C52.8031 34.8084 53.2387 37.2116 53.2387 39.6592V40.6251H43.5796V32.8109C46.316 32.3492 48.4092 29.9692 48.4092 27.1024V25.1706C48.4092 23.0398 50.142 21.307 52.2728 21.307H56.0292C54.8092 22.4999 53.1431 23.2388 51.3069 23.2388H50.341V24.2047C50.341 26.8851 50.8181 29.5162 51.7589 32.0256Z" fill="black"/>
<path d="M29.0902 21.3071H27.1584C26.093 21.3071 25.2266 20.4407 25.2266 19.3753V17.4435C25.2266 16.3781 26.093 15.5117 27.1584 15.5117H29.0902C30.1556 15.5117 31.022 16.3781 31.022 17.4435V19.3753C31.022 20.4407 30.1556 21.3071 29.0902 21.3071Z" fill="#FFDE76"/>
<path d="M36.8167 21.3071H34.8849C33.8195 21.3071 32.9531 20.4407 32.9531 19.3753V17.4435C32.9531 16.3781 33.8195 15.5117 34.8849 15.5117H36.8167C37.8821 15.5117 38.7486 16.3781 38.7486 17.4435V19.3753C38.7486 20.4407 37.8821 21.3071 36.8167 21.3071Z" fill="#FFDE76"/>
</g>
<defs>
<clipPath id="clip0_5876_327">
<rect width="60" height="60" fill="white"/>
</clipPath>
</defs>
</svg>
