<svg width="60" height="60" viewBox="0 0 60 60" fill="none" xmlns="http://www.w3.org/2000/svg">
<path d="M20.625 58.125H3.75V35.625H20.625V58.125Z" fill="#FFDE76"/>
<path d="M35.625 0.9375C27.3403 0.9375 20.625 7.65281 20.625 15.9375C20.625 23.2472 25.8563 29.3278 32.7769 30.6591C32.7863 30.4988 32.8125 30.3422 32.8125 30.18V24.375L30.4669 25.3125L29.94 19.6613L25.3125 16.3809L29.94 13.1006L30.4669 7.44938L35.625 9.81844L40.7831 7.44938L41.31 13.1006L45.9375 16.3809L41.31 19.6613L40.7831 25.3125L38.4375 24.375V30.6647C45.3759 29.3475 50.625 23.2594 50.625 15.9375C50.625 7.65281 43.9097 0.9375 35.625 0.9375Z" fill="#FFDE76"/>
<path d="M54.9544 41.25C55.7419 40.5619 56.25 39.5625 56.25 38.4375C56.25 36.3694 54.5681 34.6875 52.5 34.6875H44.0625H43.125H42.1875C40.6369 34.6875 39.375 33.4256 39.375 31.875V25.7597L41.6006 26.6494L42.2044 20.1778L47.5584 16.3819L42.2044 12.5859L41.595 6.04688L35.625 8.78719L29.6559 6.04688L29.0466 12.5859L23.6925 16.3819L29.0466 20.1778L29.6503 26.6494L31.875 25.7597V30.18C31.875 33.1125 30.1341 35.7534 27.4387 36.9084C26.5228 37.3012 25.5525 37.5 24.555 37.5H20.625V39.375H24.555C25.8075 39.375 27.0272 39.1247 28.1775 38.6316C31.5628 37.1812 33.75 33.8634 33.75 30.18V22.9912L31.2834 23.9766L30.8334 19.1456L26.9334 16.3809L30.8334 13.6162L31.2778 8.85375L35.625 10.8506L39.9731 8.85469L40.4175 13.6172L44.3175 16.3819L40.4175 19.1466L39.9675 23.9775L37.5 22.9903V31.875C37.5 33.75 38.6137 35.3597 40.2094 36.1087C39.6956 36.7509 39.375 37.5534 39.375 38.4375C39.375 39.2147 39.6131 39.9375 40.02 40.5366C38.5575 41.0494 37.5 42.4275 37.5 44.0625C37.5 45.1875 38.0081 46.1869 38.7956 46.875C38.0081 47.5631 37.5 48.5625 37.5 49.6875C37.5 50.8125 38.0081 51.8119 38.7956 52.5C38.0081 53.1881 37.5 54.1875 37.5 55.3125C37.5 55.9987 37.6987 56.6334 38.0212 57.1875H35.3512C31.3828 57.1875 27.4078 56.2491 23.8566 54.4734L23.6588 54.375H20.625V56.25H23.2181C26.9766 58.0903 31.1672 59.0625 35.3512 59.0625H41.25H48.75C50.8181 59.0625 52.5 57.3806 52.5 55.3125C52.5 54.5353 52.2619 53.8125 51.855 53.2134C53.3175 52.7006 54.375 51.3225 54.375 49.6875C54.375 48.9103 54.1369 48.1875 53.73 47.5884C55.1925 47.0756 56.25 45.6975 56.25 44.0625C56.25 42.9375 55.7419 41.9381 54.9544 41.25ZM44.0625 36.5625H52.5C53.5341 36.5625 54.375 37.4034 54.375 38.4375C54.375 39.4716 53.5341 40.3125 52.5 40.3125H43.125C42.0909 40.3125 41.25 39.4716 41.25 38.4375C41.25 37.4034 42.0909 36.5625 43.125 36.5625H44.0625ZM48.75 57.1875H41.25C40.2159 57.1875 39.375 56.3466 39.375 55.3125C39.375 54.2784 40.2159 53.4375 41.25 53.4375H48.75C49.7841 53.4375 50.625 54.2784 50.625 55.3125C50.625 56.3466 49.7841 57.1875 48.75 57.1875ZM50.625 51.5625H48.75H41.25C40.2159 51.5625 39.375 50.7216 39.375 49.6875C39.375 48.6534 40.2159 47.8125 41.25 47.8125H50.625C51.6591 47.8125 52.5 48.6534 52.5 49.6875C52.5 50.7216 51.6591 51.5625 50.625 51.5625ZM52.5 45.9375H50.625H41.25C40.2159 45.9375 39.375 45.0966 39.375 44.0625C39.375 43.0284 40.2159 42.1875 41.25 42.1875H43.125H52.5C53.5341 42.1875 54.375 43.0284 54.375 44.0625C54.375 45.0966 53.5341 45.9375 52.5 45.9375Z" fill="black"/>
<path d="M39.375 16.875C39.375 14.8069 37.6931 13.125 35.625 13.125C33.5569 13.125 31.875 14.8069 31.875 16.875C31.875 18.9431 33.5569 20.625 35.625 20.625C37.6931 20.625 39.375 18.9431 39.375 16.875ZM35.625 18.75C34.5909 18.75 33.75 17.9091 33.75 16.875C33.75 15.8409 34.5909 15 35.625 15C36.6591 15 37.5 15.8409 37.5 16.875C37.5 17.9091 36.6591 18.75 35.625 18.75Z" fill="black"/>
<path d="M16.875 39.375H15V41.25H16.875V39.375Z" fill="black"/>
<path d="M16.875 43.125H15V58.125H16.875V43.125Z" fill="black"/>
<path d="M13.125 35.625H11.25V58.125H13.125V35.625Z" fill="black"/>
</svg>
