<svg width="39" height="39" viewBox="0 0 39 39" fill="none" xmlns="http://www.w3.org/2000/svg">
<g clip-path="url(#clip0_5876_503)">
<path d="M34.1695 14.7773H27.4219V4.875C27.4219 4.45438 27.0808 4.11328 26.6602 4.11328H0.761719C0.341098 4.11328 0 4.45438 0 4.875V9.2299C0 9.65052 0.341098 9.99162 0.761719 9.99162C1.18234 9.99162 1.52344 9.65052 1.52344 9.2299V5.63672H9.80827V13.584C9.80827 13.8695 9.968 14.1311 10.222 14.2616C10.4761 14.3921 10.7818 14.3694 11.0138 14.2031L13.6169 12.3374L16.2201 14.2031C16.3519 14.2975 16.5075 14.3457 16.6639 14.3457C16.7828 14.3457 16.9022 14.3179 17.0118 14.2616C17.2658 14.1311 17.4255 13.8696 17.4255 13.584V5.63672H25.8984V26.3555H1.52344V16.085C1.52344 15.6644 1.18234 15.3233 0.761719 15.3233C0.341098 15.3233 0 15.6644 0 16.085V30.7734C0 31.1941 0.341098 31.5352 0.761719 31.5352H4.18511C4.5435 33.4404 6.21882 34.8867 8.22656 34.8867C10.2343 34.8867 11.9096 33.4404 12.268 31.5352H25.9703C26.3287 33.4404 28.0041 34.8867 30.0118 34.8867C32.0195 34.8867 33.6949 33.4404 34.0532 31.5352H38.2383C38.6589 31.5352 39 31.1941 39 30.7734V19.6079C39 16.9443 36.8331 14.7773 34.1695 14.7773ZM15.902 12.1008L14.0606 10.7811C13.928 10.686 13.7724 10.6385 13.6169 10.6385C13.4613 10.6385 13.3058 10.686 13.1732 10.7811L11.3317 12.1008V5.63672H15.902V12.1008ZM35.6484 23.0039H37.4766V24.832H35.6484V23.0039ZM34.1695 16.3008C35.993 16.3008 37.4766 17.7844 37.4766 19.6079V21.4805H30.7734V20.4649C30.7734 19.1208 29.68 18.0274 28.3359 18.0274C28.0127 18.0274 27.7043 18.0911 27.4219 18.2058V16.3008H34.1695ZM27.4219 20.4649C27.4219 19.9608 27.8319 19.5508 28.3359 19.5508C28.84 19.5508 29.25 19.9608 29.25 20.4649V21.4805H27.4219V20.4649ZM25.8984 30.0117H12.268C12.1132 29.1885 11.7131 28.451 11.1458 27.8789H25.8984V30.0117ZM1.52344 27.8789H5.30735C4.74002 28.451 4.33997 29.1885 4.18511 30.0117H1.52344V27.8789ZM8.22656 33.3633C6.79849 33.3633 5.63672 32.2015 5.63672 30.7734C5.63672 29.3454 6.79849 28.1836 8.22656 28.1836C9.65463 28.1836 10.8164 29.3454 10.8164 30.7734C10.8164 32.2015 9.65463 33.3633 8.22656 33.3633ZM30.0117 33.3633C28.5836 33.3633 27.4219 32.2015 27.4219 30.7734C27.4219 29.3454 28.5836 28.1836 30.0117 28.1836C31.4398 28.1836 32.6016 29.3454 32.6016 30.7734C32.6016 32.2015 31.4398 33.3633 30.0117 33.3633ZM34.0532 30.0117C33.6948 28.1065 32.0195 26.6602 30.0117 26.6602C29.0309 26.6602 28.1295 27.0057 27.4219 27.5809V23.0039H34.125V25.5938C34.125 26.0144 34.4661 26.3555 34.8867 26.3555H37.4766V30.0117H34.0532Z" fill="#807300"/>
<path d="M30.0117 30.0117C29.8114 30.0117 29.6149 30.0931 29.4732 30.2349C29.3315 30.3767 29.25 30.5731 29.25 30.7734C29.25 30.9738 29.3314 31.1703 29.4732 31.3119C29.6149 31.4536 29.8114 31.5352 30.0117 31.5352C30.2121 31.5352 30.4086 31.4537 30.5502 31.3119C30.6919 31.1703 30.7734 30.9738 30.7734 30.7734C30.7734 30.5731 30.6919 30.3766 30.5502 30.2349C30.4086 30.0931 30.2121 30.0117 30.0117 30.0117Z" fill="#807300"/>
<path d="M8.23047 30.0117C8.03014 30.0117 7.83361 30.0931 7.69193 30.2349C7.55025 30.3767 7.46875 30.5731 7.46875 30.7734C7.46875 30.9738 7.55018 31.1703 7.69193 31.3119C7.83361 31.4536 8.03014 31.5352 8.23047 31.5352C8.4308 31.5352 8.62732 31.4537 8.76893 31.3119C8.91068 31.1703 8.99219 30.9738 8.99219 30.7734C8.99219 30.5731 8.91068 30.3766 8.76893 30.2349C8.62732 30.0931 8.4308 30.0117 8.23047 30.0117Z" fill="#807300"/>
<path d="M5.18359 21.1758H11.582C12.0027 21.1758 12.3438 20.8347 12.3438 20.4141C12.3438 19.9934 12.0027 19.6523 11.582 19.6523H5.18359C4.76297 19.6523 4.42188 19.9934 4.42188 20.4141C4.42188 20.8347 4.76297 21.1758 5.18359 21.1758Z" fill="#807300"/>
<path d="M5.18359 24.5273H11.582C12.0027 24.5273 12.3438 24.1862 12.3438 23.7656C12.3438 23.345 12.0027 23.0039 11.582 23.0039H5.18359C4.76297 23.0039 4.42188 23.345 4.42188 23.7656C4.42188 24.1862 4.76297 24.5273 5.18359 24.5273Z" fill="#807300"/>
<path d="M0.761719 13.4192C0.962051 13.4192 1.15857 13.3377 1.30018 13.196C1.44186 13.0543 1.52344 12.8578 1.52344 12.6575C1.52344 12.4563 1.44193 12.2606 1.30018 12.1189C1.15857 11.9765 0.962051 11.8958 0.761719 11.8958C0.561387 11.8958 0.364863 11.9765 0.223184 12.1189C0.0815039 12.2599 0 12.4564 0 12.6575C0 12.8578 0.0814277 13.0543 0.223184 13.196C0.364863 13.3377 0.561387 13.4192 0.761719 13.4192Z" fill="#807300"/>
</g>
<defs>
<clipPath id="clip0_5876_503">
<rect width="39" height="39" fill="white"/>
</clipPath>
</defs>
</svg>
