<svg width="39" height="39" viewBox="0 0 39 39" fill="none" xmlns="http://www.w3.org/2000/svg">
<g clip-path="url(#clip0_5876_498)">
<path d="M37.4736 11.5603H35.6411V7.28177C35.6206 7.11412 35.6274 6.97152 35.4149 6.73973L29.0235 0.348301C28.9811 0.330857 28.8802 0.142789 28.4814 0.12207H8.23121C7.38951 0.12207 6.7048 0.80678 6.7048 1.64848V7.57404H1.52641C0.684709 7.57404 0 8.25883 0 9.10053V33.9849C0 34.8266 0.684709 35.5114 1.52641 35.5114H5.80041C6.22187 35.5114 6.56365 35.1697 6.56365 34.7481C6.56365 34.3267 6.22195 33.9849 5.80041 33.9849H1.52641V9.10053L11.187 9.10007L12.5206 12.1696C12.7633 12.7268 13.3129 13.0868 13.921 13.0868H37.4736V33.9849H32.0089V21.6028C32.0089 21.4887 31.9833 21.3761 31.9341 21.2732L30.7183 18.7343C30.5246 18.3299 30.1257 18.0779 29.6773 18.0766C29.6761 18.0766 29.6751 18.0765 29.6739 18.0765C29.2268 18.0765 28.8281 18.3262 28.6327 18.7283L27.4024 21.2602C27.3519 21.3641 27.3256 21.4782 27.3256 21.5938V33.9849H12.6441C12.2226 33.9849 11.8808 34.3266 11.8808 34.7481C11.8808 35.1696 12.2225 35.5114 12.6441 35.5114H27.3256V36.5363C27.3256 37.8239 28.373 38.8744 29.6605 38.878H29.6675C30.2916 38.878 30.8785 38.6355 31.3207 38.1946C31.7645 37.7521 32.0089 37.1632 32.0089 36.5363V35.5114H37.4737C38.3154 35.5114 39.0001 34.8267 39.0001 33.985V13.0868C39 12.2451 38.3153 11.5603 37.4736 11.5603ZM29.2444 2.72783L33.035 6.51845H29.2444V2.72783ZM13.9203 11.5607L12.5867 8.49115C12.344 7.93411 11.7947 7.57412 11.1871 7.57412H8.23121V1.64856H27.718V6.51845C27.718 7.36015 28.4027 8.04486 29.2444 8.04486H34.1147V11.5603L13.9203 11.5607ZM29.6715 20.0828L30.4825 21.7761V23.0373H28.852V21.7694L29.6715 20.0828ZM30.2428 37.1137C30.0889 37.2671 29.8846 37.3515 29.6673 37.3515C29.6664 37.3515 29.6656 37.3515 29.6648 37.3515C29.2166 37.3502 28.852 36.9845 28.852 36.5363V24.5637H30.4825V36.5363C30.4825 36.7546 30.3974 36.9596 30.2428 37.1137Z" fill="#807300"/>
<path d="M9.44736 28.5878L15.8645 32.2927C16.041 32.3947 16.2391 32.4457 16.4371 32.4457C16.635 32.4457 16.833 32.3947 17.0095 32.2928L23.427 28.5877C23.7799 28.3838 23.9992 28.004 23.9992 27.5963V20.1863C23.9992 19.7785 23.7798 19.3985 23.4268 19.1948L17.0093 15.4897C16.6563 15.2859 16.2177 15.286 15.8647 15.4898L9.44758 19.1948C9.09445 19.3985 8.875 19.7784 8.875 20.1863V27.5963C8.87492 28.004 9.09422 28.3838 9.44736 28.5878ZM10.4013 21.2257L15.6525 23.9685V30.4079L10.4013 27.3761V21.2257ZM17.179 30.4323V23.9699L22.4727 21.2221V27.376L17.179 30.4323ZM16.437 16.922L21.6477 19.9304L16.4168 22.6457L11.2225 19.9326L16.437 16.922Z" fill="#807300"/>
<path d="M9.22418 35.5113C9.64571 35.5113 9.98742 35.1696 9.98742 34.7481C9.98742 34.3266 9.64571 33.9849 9.22418 33.9849C8.80265 33.9849 8.46094 34.3266 8.46094 34.7481C8.46094 35.1696 8.80265 35.5113 9.22418 35.5113Z" fill="#807300"/>
</g>
<defs>
<clipPath id="clip0_5876_498">
<rect width="39" height="39" fill="white"/>
</clipPath>
</defs>
</svg>
