<svg width="39" height="39" viewBox="0 0 39 39" fill="none" xmlns="http://www.w3.org/2000/svg">
<g clip-path="url(#clip0_5876_512)">
<path d="M27.5516 20.7393C27.5516 20.739 27.5513 20.7387 27.551 20.7387L25.4684 18.6562L28.4394 15.6852L29.8218 14.6572L30.2679 15.1032L30.0233 16.0277C29.954 16.2901 30.0295 16.5692 30.2212 16.7611L31.9865 18.5262C32.3552 18.8951 32.8455 19.0981 33.3668 19.0981C33.8884 19.0981 34.3785 18.8951 34.7474 18.5262L38.4281 14.8455C38.797 14.4766 39 13.9865 39 13.4649C39 12.9433 38.797 12.4533 38.4281 12.0846L36.663 10.3193C36.4711 10.1273 36.1917 10.0521 35.9296 10.1214L35.0051 10.366L34.4969 9.85776L34.8254 9.25493C34.9872 8.95828 34.9343 8.59051 34.6954 8.35158L28.5787 2.23492C25.6047 -0.738763 20.7657 -0.738763 17.792 2.23492L15.8285 4.19872C15.531 4.49627 15.531 4.97859 15.8285 5.27584L17.4743 6.92187C17.6174 7.06469 17.8111 7.14503 18.0131 7.14503C18.2149 7.14503 18.4086 7.06469 18.5517 6.92187C18.9968 6.47674 19.5892 6.23126 20.2191 6.23126C20.8487 6.23126 21.4409 6.47674 21.8863 6.92187L23.5909 8.62651C24.1786 9.21417 24.1786 10.1705 23.5909 10.7578L19.1471 15.202L8.40267 4.45759L7.15744 2.4072C7.08811 2.29294 6.99022 2.19921 6.87328 2.13494L3.15991 0.0943676C2.86266 -0.0689854 2.4937 -0.0166173 2.25417 0.223205L0.223123 2.25456C-0.0164021 2.49408 -0.0690678 2.86304 0.0942852 3.15999L2.13486 6.87337C2.19913 6.99031 2.29286 7.0882 2.40711 7.15753L4.4581 8.40306L15.2022 19.1472L12.5591 21.7903L12.1351 21.3666C11.8375 21.069 11.3555 21.069 11.058 21.3666L1.64629 30.7783C-0.231826 32.6564 -0.231826 35.7125 1.64629 37.5906C2.58534 38.5296 3.81897 38.9992 5.0526 38.9992C6.28622 38.9992 7.51985 38.5296 8.45891 37.5906L17.8706 28.1789C18.1681 27.8816 18.1681 27.3993 17.8706 27.1018L17.4469 26.6778L18.6561 25.4685L24.05 30.8625C24.3476 31.1597 24.8299 31.1597 25.1275 30.8625C25.4247 30.5649 25.4247 30.0826 25.1275 29.7853L22.3546 27.0122L27.0127 22.3544L36.5107 31.8524C37.1329 32.4746 37.4753 33.3017 37.4753 34.1813C37.4753 35.0611 37.1329 35.8883 36.5107 36.5105C35.2265 37.7944 33.1368 37.7944 31.8526 36.5105L29.9748 34.6327C29.6772 34.3351 29.1952 34.3351 28.8977 34.6327C28.6001 34.9299 28.6001 35.4122 28.8977 35.7098L30.7755 37.5876C31.7145 38.5267 32.9482 38.9962 34.1818 38.9962C35.4154 38.9962 36.6487 38.5267 37.5878 37.5876C38.4974 36.678 38.9985 35.4682 38.9985 34.1816C38.9985 32.895 38.4974 31.6852 37.5875 30.7753L27.5516 20.7393ZM19.0965 23.7547C18.9162 23.5747 18.9162 23.2813 19.0965 23.1013L19.6648 22.5326L22.5326 19.6652L23.1012 19.0966C23.1883 19.0094 23.3044 18.9612 23.4279 18.9612C23.5511 18.9612 23.6671 19.0094 23.7543 19.0966L25.935 21.2773L21.2769 25.9354L19.0965 23.7547ZM6.00891 7.79933L7.79925 6.009L20.9169 19.1266L19.1262 20.917L6.00891 7.79933ZM22.9637 5.84505C21.6346 4.51621 19.5738 4.35404 18.0661 5.35945L17.4442 4.73758L18.8695 3.31263C21.2492 0.932556 25.1215 0.932556 27.5016 3.31263L33.2154 9.02612L32.8866 9.62865C32.7247 9.9256 32.7777 10.2931 33.0166 10.532L34.2377 11.7531C34.4296 11.945 34.7087 12.0203 34.9709 11.951L35.8957 11.7064L37.351 13.162C37.4319 13.2429 37.4765 13.3507 37.4765 13.4652C37.4765 13.5795 37.4319 13.6872 37.351 13.7681L33.67 17.4491C33.5891 17.5303 33.4814 17.5749 33.3671 17.5749C33.2526 17.5749 33.1448 17.5303 33.0639 17.4491L31.6083 15.9938L31.8529 15.0693C31.9222 14.8069 31.8466 14.5278 31.655 14.3358L30.4342 13.115C30.1667 12.8475 29.7442 12.8166 29.441 13.0421L28.0137 14.1035L25.1385 11.2286C25.821 10.0672 25.6642 8.54528 24.6683 7.54969L22.9637 5.84505ZM24.1298 12.3741L25.4961 13.7407L26.8627 15.1074L24.3205 17.6496C24.0471 17.5115 23.743 17.4381 23.4279 17.4381C22.8973 17.4381 22.399 17.6446 22.0237 18.0195L21.994 18.0492L20.2242 16.2797L24.1298 12.3741ZM1.70461 2.92731L2.92722 1.70469L5.96101 3.37184L6.83788 4.81613L4.81575 6.83796L3.37176 5.96109L1.70461 2.92731ZM7.38149 36.5135C6.09758 37.7977 4.00761 37.7977 2.7234 36.5135C1.43949 35.2293 1.43949 33.1396 2.7234 31.8554L11.5965 22.9825L12.0196 23.4056C12.0199 23.4056 12.0202 23.4059 12.0202 23.4062L15.8306 27.2166L16.2546 27.6403L7.38149 36.5135ZM13.6362 22.8677L16.2793 20.2246L18.0491 21.9941L18.0191 22.0241C17.399 22.6442 17.2761 23.5761 17.6498 24.3203L16.3692 25.6007L13.6362 22.8677Z" fill="#807300"/>
<path d="M27.0117 31.9856C26.8106 31.9856 26.6151 32.0671 26.4732 32.2088C26.3309 32.3504 26.25 32.5468 26.25 32.7473C26.25 32.9485 26.3309 33.1439 26.4732 33.2856C26.6151 33.4281 26.8115 33.509 27.0117 33.509C27.2123 33.509 27.4078 33.4281 27.5503 33.2856C27.6919 33.1439 27.7734 32.9476 27.7734 32.7473C27.7734 32.5468 27.6919 32.3513 27.5503 32.2088C27.4086 32.0671 27.2123 31.9856 27.0117 31.9856Z" fill="#807300"/>
</g>
<defs>
<clipPath id="clip0_5876_512">
<rect width="39" height="39" fill="white"/>
</clipPath>
</defs>
</svg>
