<svg width="88" height="66" viewBox="0 0 88 66" fill="none" xmlns="http://www.w3.org/2000/svg">
<g clip-path="url(#clip0_5954_516)">
<path d="M88 0V52.1851H77.5629V27.6392L67.8875 47.2448L49.7618 10.5367H32.2539L27.1699 20.8007H47.7677L32.2539 52.1851H0L5.18749 41.5951H25.806L30.889 31.3311L10.2849 31.3656L25.806 0H56.2169L67.8875 23.6328L79.557 0H88Z" fill="black"/>
<path d="M64.5929 52.185H37.6797L51.1405 24.4121L64.5929 52.185Z" fill="black"/>
<path d="M0 63.1604L1.03791 63.0685C1.08758 63.4884 1.20141 63.8332 1.38147 64.1027C1.56152 64.3722 1.83989 64.5895 2.21759 64.7556C2.59633 64.9217 3.0206 65.0043 3.49455 65.0043C3.91468 65.0043 4.2841 64.9416 4.60593 64.8152C4.92775 64.6898 5.16679 64.5164 5.32305 64.297C5.48034 64.0766 5.55899 63.8374 5.55899 63.5783C5.55899 63.315 5.48345 63.0852 5.33236 62.8877C5.18025 62.6913 4.93086 62.5263 4.5842 62.3926C4.36068 62.3048 3.86708 62.168 3.10442 61.9831C2.34073 61.7981 1.80574 61.6237 1.49944 61.4597C1.1031 61.2497 0.806115 60.9885 0.611571 60.6782C0.417027 60.3669 0.318721 60.019 0.318721 59.6325C0.318721 59.2084 0.437724 58.8135 0.675729 58.4447C0.913735 58.0759 1.26143 57.797 1.71985 57.6058C2.17724 57.4157 2.68533 57.3196 3.24516 57.3196C3.86087 57.3196 4.40518 57.4199 4.87601 57.6204C5.34685 57.821 5.70903 58.1156 5.96256 58.5053C6.21609 58.8939 6.35165 59.3358 6.37028 59.8279L5.31581 59.9083C5.25889 59.3776 5.06642 58.9765 4.73942 58.7059C4.41242 58.4353 3.92916 58.2995 3.29069 58.2995C2.62531 58.2995 2.13998 58.4228 1.83575 58.6693C1.53152 58.9148 1.37836 59.2115 1.37836 59.5594C1.37836 59.8603 1.48598 60.1089 1.70226 60.3032C1.91439 60.4975 2.46698 60.697 3.36106 60.9018C4.25513 61.1055 4.86877 61.2842 5.20094 61.4367C5.68523 61.6623 6.04224 61.9475 6.273 62.2933C6.50273 62.6381 6.61863 63.0371 6.61863 63.4874C6.61863 63.9335 6.49238 64.3545 6.23782 64.7504C5.98429 65.1453 5.62004 65.4524 5.1461 65.6718C4.67112 65.8912 4.13716 66.0009 3.54422 66.0009C2.79191 66.0009 2.16171 65.8902 1.65259 65.6687C1.14346 65.4483 0.745062 65.115 0.455315 64.67C0.167639 64.2249 0.0155221 63.7214 0 63.1604Z" fill="black"/>
<path d="M10.1094 61.769C10.1094 60.3754 10.4798 59.2847 11.2208 58.497C11.9617 57.7093 12.9178 57.3145 14.0903 57.3145C14.8581 57.3145 15.5494 57.4994 16.1661 57.8702C16.7818 58.24 17.2526 58.7561 17.5755 59.4184C17.8994 60.0808 18.0608 60.8319 18.0608 61.6718C18.0608 62.5222 17.8901 63.2848 17.5507 63.9566C17.2102 64.6283 16.728 65.1371 16.104 65.4828C15.48 65.8286 14.8074 66.001 14.0851 66.001C13.3018 66.001 12.6033 65.8109 11.9865 65.4296C11.3708 65.0472 10.9031 64.5259 10.5854 63.8657C10.2677 63.2044 10.1094 62.5055 10.1094 61.769ZM11.2435 61.7867C11.2435 62.799 11.5136 63.5951 12.0527 64.178C12.5919 64.7599 13.2666 65.0503 14.0799 65.0503C14.9088 65.0503 15.5897 64.7568 16.1247 64.1686C16.6597 63.5805 16.9277 62.7468 16.9277 61.6666C16.9277 60.9834 16.8129 60.3869 16.5842 59.8781C16.3555 59.3683 16.0202 58.9734 15.5804 58.6924C15.1396 58.4114 14.6449 58.2714 14.0965 58.2714C13.3183 58.2714 12.6478 58.5409 12.0859 59.0821C11.524 59.6211 11.2435 60.5227 11.2435 61.7867Z" fill="black"/>
<path d="M21.7578 65.8579V57.4639H22.8588V61.6269L26.9877 57.4639H28.4799L24.9916 60.8643L28.6331 65.8569H27.1812L24.2207 61.6081L22.8599 62.9485V65.8569H21.7578V65.8579Z" fill="black"/>
<path d="M31.5391 61.769C31.5391 60.3754 31.9095 59.2847 32.6504 58.497C33.3914 57.7093 34.3475 57.3145 35.52 57.3145C36.2878 57.3145 36.979 57.4994 37.5958 57.8702C38.2115 58.24 38.6823 58.7561 39.0052 59.4184C39.3291 60.0808 39.4905 60.8319 39.4905 61.6718C39.4905 62.5222 39.3198 63.2848 38.9804 63.9566C38.6399 64.6283 38.1577 65.1371 37.5337 65.4828C36.9097 65.8286 36.2371 66.001 35.5148 66.001C34.7314 66.001 34.0329 65.8109 33.4162 65.4296C32.8005 65.0472 32.3328 64.5259 32.0151 63.8657C31.6974 63.2044 31.5391 62.5055 31.5391 61.769ZM32.6722 61.7867C32.6722 62.799 32.9423 63.5951 33.4814 64.178C34.0205 64.761 34.6952 65.0503 35.5086 65.0503C36.3375 65.0503 37.0184 64.7568 37.5534 64.1686C38.0884 63.5805 38.3564 62.7468 38.3564 61.6666C38.3564 60.9834 38.2415 60.3869 38.0128 59.8781C37.7841 59.3683 37.4488 58.9734 37.0091 58.6924C36.5682 58.4114 36.0736 58.2714 35.5251 58.2714C34.747 58.2714 34.0764 58.5409 33.5145 59.0821C32.9536 59.6211 32.6722 60.5227 32.6722 61.7867Z" fill="black"/>
<path d="M48.75 65.858V57.4639H50.4067L52.3739 63.4071C52.555 63.9608 52.6874 64.3745 52.7713 64.6493C52.8654 64.3442 53.0134 63.8961 53.2131 63.3037L55.2041 57.4629H56.6839V65.8569H55.6232V58.8314L53.2069 65.8569H52.2145L49.8107 58.7113V65.858H48.75Z" fill="black"/>
<path d="M64.7756 63.8991L65.8311 64.0307C65.6645 64.6533 65.3561 65.136 64.907 65.4797C64.4569 65.8234 63.8826 65.9947 63.1831 65.9947C62.3014 65.9947 61.6029 65.721 61.0865 65.1736C60.5712 64.6251 60.3125 63.8573 60.3125 62.869C60.3125 61.8463 60.5733 61.0523 61.0959 60.4871C61.6184 59.922 62.2942 59.6399 63.1261 59.6399C63.9312 59.6399 64.5894 59.9167 65.0995 60.4704C65.6097 61.0241 65.8653 61.8024 65.8653 62.8063C65.8653 62.8669 65.8632 62.9589 65.8601 63.0811H61.368C61.4063 63.7497 61.5926 64.2605 61.9299 64.6157C62.2662 64.9699 62.6863 65.1485 63.1893 65.1485C63.5639 65.1485 63.8826 65.0493 64.1475 64.8508C64.4103 64.6512 64.6204 64.3347 64.7756 63.8991ZM61.4239 62.2328H64.787C64.7415 61.7209 64.6132 61.3375 64.401 61.0816C64.0761 60.6856 63.6549 60.4861 63.1365 60.4861C62.6677 60.4861 62.2735 60.6449 61.9537 60.9614C61.6339 61.279 61.458 61.7021 61.4239 62.2328Z" fill="black"/>
<path d="M70.3765 65.8579H69.4297V57.4639H70.45V60.4579C70.8815 59.9116 71.431 59.6389 72.1005 59.6389C72.471 59.6389 72.8218 59.7141 73.1519 59.8656C73.483 60.0171 73.7552 60.2281 73.9683 60.5008C74.1815 60.7734 74.3492 61.1025 74.4702 61.488C74.5913 61.8745 74.6513 62.2861 74.6513 62.7249C74.6513 63.7664 74.3957 64.5729 73.8856 65.1423C73.3754 65.7106 72.7628 65.9948 72.0477 65.9948C71.3368 65.9948 70.7791 65.696 70.3745 65.0963V65.8579H70.3765ZM70.3651 62.7709C70.3651 63.5011 70.4645 64.0266 70.6601 64.3515C70.9819 64.8822 71.4165 65.1475 71.965 65.1475C72.411 65.1475 72.7959 64.9522 73.1219 64.5604C73.4468 64.1686 73.6103 63.5857 73.6103 62.8116C73.6103 62.0176 73.454 61.4316 73.1415 61.0544C72.829 60.6763 72.4524 60.4872 72.0105 60.4872C71.5635 60.4872 71.1785 60.6825 70.8536 61.0743C70.5287 61.465 70.3651 62.0312 70.3651 62.7709Z" fill="black"/>
<path d="M82.3381 63.8991L83.3936 64.0307C83.227 64.6533 82.9187 65.136 82.4696 65.4797C82.0194 65.8234 81.4451 65.9947 80.7456 65.9947C79.8639 65.9947 79.1654 65.721 78.649 65.1736C78.1337 64.6251 77.875 63.8573 77.875 62.869C77.875 61.8463 78.1358 61.0523 78.6583 60.4871C79.1809 59.922 79.8567 59.6399 80.6886 59.6399C81.4937 59.6399 82.1519 59.9167 82.662 60.4704C83.1722 61.0241 83.4278 61.8024 83.4278 62.8063C83.4278 62.8669 83.4257 62.9589 83.4226 63.0811H78.9305C78.9688 63.7497 79.1551 64.2605 79.4924 64.6157C79.8287 64.9699 80.2489 65.1485 80.7518 65.1485C81.1264 65.1485 81.4451 65.0493 81.71 64.8508C81.9728 64.6512 82.1829 64.3347 82.3381 63.8991ZM78.9853 62.2328H82.3485C82.3029 61.7209 82.1746 61.3375 81.9625 61.0816C81.6376 60.6856 81.2164 60.4861 80.698 60.4861C80.2292 60.4861 79.8349 60.6449 79.5152 60.9614C79.1964 61.279 79.0195 61.7021 78.9853 62.2328Z" fill="black"/>
<path d="M86.9766 65.8579V57.4639H87.9969V65.8579H86.9766Z" fill="black"/>
</g>
<defs>
<clipPath id="clip0_5954_516">
<rect width="88" height="66" fill="white"/>
</clipPath>
</defs>
</svg>
