<svg width="0" height="0" class="hidden">
  <symbol xmlns="http://www.w3.org/2000/svg" viewBox="0 0 14 14" id="ic_arr">
    <path d="M3.29877 6.30693L9.31857 0.287343C9.7015 -0.0957729 10.3224 -0.0957728 10.7051 0.287343C11.0879 0.670118 11.0879 1.29094 10.7051 1.67369L5.37852 7.0001L10.705 12.3263C11.0877 12.7093 11.0877 13.33 10.705 13.7128C10.3222 14.0957 9.70135 14.0957 9.31841 13.7128L3.29862 7.69312C3.10723 7.50164 3.01164 7.25095 3.01164 7.00013C3.01164 6.74919 3.10742 6.49832 3.29877 6.30693Z" fill="currentColor"></path>
  </symbol>
  <symbol xmlns="http://www.w3.org/2000/svg" viewBox="0 0 12 12" id="ic_check">
    <path d="M4.31726 10.3171C4.07378 10.3171 3.83005 10.2243 3.64431 10.0384L0.278815 6.67291C-0.0929384 6.30116 -0.0929384 5.69853 0.278815 5.32677C0.650569 4.95502 1.2532 4.95502 1.62495 5.32677L4.31726 8.01907L10.3751 1.96139C10.7468 1.58975 11.3496 1.58964 11.7211 1.96139C12.0929 2.33314 12.0929 2.93591 11.7211 3.30753L4.99034 10.0384C4.80446 10.2242 4.56084 10.3171 4.31726 10.3171Z" fill="currentColor"></path>
  </symbol>
  <symbol xmlns="http://www.w3.org/2000/svg" viewBox="0 0 10 10" id="ic_close">
    <path d="M5.91616 5.00828L9.80997 1.11435C10.0634 0.861071 10.0634 0.451547 9.80997 0.198263C9.55668 -0.0550201 9.14716 -0.0550201 8.89388 0.198263L4.99995 4.09219L1.10614 0.198263C0.852742 -0.0550201 0.443335 -0.0550201 0.190052 0.198263C-0.0633506 0.451547 -0.0633506 0.861071 0.190052 1.11435L4.08386 5.00828L0.190052 8.9022C-0.0633506 9.15548 -0.0633506 9.56501 0.190052 9.81829C0.316278 9.94464 0.482247 10.0081 0.648098 10.0081C0.813948 10.0081 0.979799 9.94464 1.10614 9.81829L4.99995 5.92437L8.89388 9.81829C9.02022 9.94464 9.18607 10.0081 9.35192 10.0081C9.51777 10.0081 9.68362 9.94464 9.80997 9.81829C10.0634 9.56501 10.0634 9.15548 9.80997 8.9022L5.91616 5.00828Z" fill="currentColor"></path>
  </symbol>
  <symbol xmlns="http://www.w3.org/2000/svg" viewBox="0 0 28 28" id="ic_email">
    <path d="M25.5391 4.15625H2.46094C1.10677 4.15625 0 5.25815 0 6.61719V21.3828C0 22.7423 1.10748 23.8438 2.46094 23.8438H25.5391C26.8932 23.8438 28 22.7419 28 21.3828V6.61719C28 5.25782 26.8927 4.15625 25.5391 4.15625ZM25.1612 5.79688C24.3655 6.59515 15.0196 15.9715 14.6357 16.3567C14.315 16.6784 13.6852 16.6786 13.3643 16.3567L2.83883 5.79688H25.1612ZM1.64062 21.0812V6.91879L8.69887 14L1.64062 21.0812ZM2.83883 22.2031L9.85709 15.162L12.2024 17.5149C13.1634 18.4791 14.8369 18.4787 15.7977 17.5149L18.143 15.1621L25.1612 22.2031H2.83883ZM26.3594 21.0812L19.3011 14L26.3594 6.91879V21.0812Z" fill="currentColor"></path>
  </symbol>
  <symbol xmlns="http://www.w3.org/2000/svg" viewBox="0 0 9 17" id="ic_fb">
    <path d="M8.67974 6.93901L8.40619 9.23599C8.39438 9.34268 8.34348 9.44122 8.26329 9.51259C8.1831 9.58395 8.07932 9.62309 7.97198 9.62243H5.58382V16.4395C5.5844 16.5209 5.55277 16.5993 5.49583 16.6574C5.43889 16.7156 5.36126 16.7489 5.27987 16.75H2.84612C2.80563 16.7494 2.76566 16.7409 2.72847 16.7249C2.69128 16.7089 2.65761 16.6857 2.62939 16.6566C2.60116 16.6276 2.57893 16.5933 2.56397 16.5557C2.54901 16.5181 2.5416 16.4779 2.54217 16.4374L2.5552 9.62243H0.746711C0.631551 9.62243 0.521107 9.57669 0.439677 9.49526C0.358247 9.41383 0.3125 9.30338 0.3125 9.18822V6.89125C0.3125 6.77609 0.358247 6.66565 0.439677 6.58422C0.521107 6.50279 0.631551 6.45704 0.746711 6.45704H2.54434V4.22954C2.54434 1.6525 4.07711 0.25 6.32198 0.25H8.16086C8.27602 0.25 8.38646 0.295747 8.46789 0.377177C8.54932 0.458607 8.59507 0.569051 8.59507 0.684211V2.61862C8.59507 2.73378 8.54932 2.84422 8.46789 2.92565C8.38646 3.00708 8.27602 3.05283 8.16086 3.05283H7.03408C5.81395 3.07237 5.58382 3.65638 5.58382 4.52914V6.45053H8.25639C8.31736 6.45157 8.37743 6.46545 8.43268 6.49125C8.48794 6.51706 8.53714 6.55421 8.57708 6.6003C8.61701 6.64638 8.6468 6.70036 8.66449 6.75872C8.68218 6.81708 8.68738 6.87851 8.67974 6.93901Z" fill="currentColor"></path>
  </symbol>
  <symbol xmlns="http://www.w3.org/2000/svg" viewBox="0 0 19 20" id="ic_grid">
    <path fill-rule="evenodd" clip-rule="evenodd" d="M12.6641 13.3333H15.8307V16.6666H12.6641V13.3333ZM7.91406 13.3333H11.0807V16.6666H7.91406V13.3333ZM3.16406 13.3333H6.33073V16.6666H3.16406V13.3333ZM12.6641 8.33325H15.8307V11.6666H12.6641V8.33325ZM7.91406 8.33325H11.0807V11.6666H7.91406V8.33325ZM3.16406 8.33325H6.33073V11.6666H3.16406V8.33325ZM12.6641 3.33325H15.8307V6.66659H12.6641V3.33325ZM7.91406 3.33325H11.0807V6.66659H7.91406V3.33325ZM3.16406 3.33325H6.33073V6.66659H3.16406V3.33325Z" fill="currentColor"></path>
  </symbol>
  <symbol xmlns="http://www.w3.org/2000/svg" viewBox="0 0 17 17" id="ic_instagram">
    <path d="M11.8347 0.25H5.16526C3.86218 0.251723 2.61297 0.770133 1.69155 1.69155C0.770133 2.61297 0.251723 3.86218 0.25 5.16526V11.8347C0.251723 13.1378 0.770133 14.387 1.69155 15.3084C2.61297 16.2299 3.86218 16.7483 5.16526 16.75H11.8347C13.138 16.7488 14.3875 16.2306 15.3091 15.3091C16.2306 14.3875 16.7488 13.138 16.75 11.8347V5.16526C16.7483 3.86218 16.2299 2.61297 15.3084 1.69155C14.387 0.770133 13.1378 0.251723 11.8347 0.25ZM15.0913 11.8347C15.0913 12.6984 14.7482 13.5268 14.1375 14.1375C13.5268 14.7482 12.6984 15.0913 11.8347 15.0913H5.16526C4.30156 15.0913 3.47324 14.7482 2.86251 14.1375C2.25179 13.5268 1.90868 12.6984 1.90868 11.8347V5.16526C1.90868 4.30156 2.25179 3.47324 2.86251 2.86251C3.47324 2.25179 4.30156 1.90868 5.16526 1.90868H11.8347C12.6984 1.90868 13.5268 2.25179 14.1375 2.86251C14.7482 3.47324 15.0913 4.30156 15.0913 5.16526V11.8347Z" fill="currentColor"></path>
    <path d="M8.49702 4.23389C7.65265 4.23346 6.82712 4.48348 6.12487 4.95232C5.42262 5.42116 4.87521 6.08775 4.55188 6.86777C4.22856 7.64779 4.14385 8.50618 4.30847 9.33435C4.4731 10.1625 4.87966 10.9233 5.47672 11.5203C6.07378 12.1174 6.83451 12.5239 7.66268 12.6886C8.49085 12.8532 9.34924 12.7685 10.1293 12.4451C10.9093 12.1218 11.5759 11.5744 12.0447 10.8722C12.5136 10.1699 12.7636 9.34438 12.7631 8.50001C12.762 7.36891 12.3122 6.28448 11.5124 5.48467C10.7126 4.68487 9.62812 4.23504 8.49702 4.23389ZM8.49702 11.1053C7.98175 11.1053 7.47805 10.9525 7.04962 10.6662C6.62119 10.3799 6.28726 9.97305 6.09007 9.497C5.89289 9.02095 5.8413 8.49712 5.94182 7.99174C6.04235 7.48637 6.29047 7.02216 6.65482 6.65781C7.01918 6.29345 7.48339 6.04533 7.98876 5.9448C8.49413 5.84428 9.01797 5.89587 9.49402 6.09306C9.97007 6.29024 10.377 6.62417 10.6632 7.0526C10.9495 7.48103 11.1023 7.98473 11.1023 8.50001C11.1023 9.19097 10.8278 9.85362 10.3392 10.3422C9.85064 10.8308 9.18798 11.1053 8.49702 11.1053Z" fill="currentColor"></path>
    <path d="M12.7895 5.28897C13.3722 5.28897 13.8446 4.81658 13.8446 4.23384C13.8446 3.65111 13.3722 3.17871 12.7895 3.17871C12.2068 3.17871 11.7344 3.65111 11.7344 4.23384C11.7344 4.81658 12.2068 5.28897 12.7895 5.28897Z" fill="currentColor"></path>
  </symbol>
  <symbol xmlns="http://www.w3.org/2000/svg" viewBox="0 0 20 20" id="ic_list">
    <path d="M6.66667 4.16667H17.5V5.83333H6.66667V4.16667ZM2.5 3.75H5V6.25H2.5V3.75ZM2.5 8.75H5V11.25H2.5V8.75ZM2.5 13.75H5V16.25H2.5V13.75ZM6.66667 9.16667H17.5V10.8333H6.66667V9.16667ZM6.66667 14.1667H17.5V15.8333H6.66667V14.1667Z" fill="currentColor"></path>
  </symbol>
  <symbol xmlns="http://www.w3.org/2000/svg" viewBox="0 0 14 18" id="ic_location">
    <path fill-rule="evenodd" clip-rule="evenodd" d="M1.93282 1.93282C3.17039 0.695257 4.84889 0 6.59907 0C8.34925 0 10.0278 0.695257 11.2653 1.93282C12.5029 3.17039 13.1981 4.84889 13.1981 6.59907C13.1981 10.0481 7.44144 17.3036 7.07676 17.7632L7.06701 17.7755C7.01079 17.8456 6.93956 17.9021 6.85857 17.941C6.77758 17.9798 6.6889 18 6.59907 18C6.50924 18 6.42056 17.9798 6.33957 17.941C6.25858 17.9021 6.18735 17.8456 6.13114 17.7755L6.12138 17.7632C5.7567 17.3036 0 10.0481 0 6.59907C0 4.84889 0.695257 3.17039 1.93282 1.93282ZM4.59972 3.00633C5.19166 2.61081 5.88758 2.39971 6.59949 2.39971C7.55414 2.39971 8.46969 2.77894 9.14472 3.45397C9.81976 4.12901 10.199 5.04456 10.199 5.9992C10.199 6.71111 9.98788 7.40704 9.59236 7.99897C9.19685 8.59091 8.63468 9.05226 7.97696 9.3247C7.31924 9.59714 6.5955 9.66842 5.89727 9.52953C5.19904 9.39064 4.55767 9.04783 4.05427 8.54443C3.55087 8.04103 3.20805 7.39966 3.06916 6.70143C2.93028 6.00319 3.00156 5.27946 3.274 4.62173C3.54643 3.96401 4.00779 3.40185 4.59972 3.00633Z" fill="currentColor"></path>
  </symbol>
  <symbol xmlns="http://www.w3.org/2000/svg" viewBox="0 0 13 21" id="ic_odnokl">
    <path d="M5.48953 14.6889C3.90077 14.5243 2.46847 14.1332 1.24117 13.1729C1.08545 13.0588 0.935984 12.9363 0.793402 12.8061C0.561235 12.5992 0.412797 12.3146 0.376092 12.0058C0.339386 11.697 0.416952 11.3855 0.594155 11.13C0.771359 10.8745 1.03595 10.6926 1.338 10.6188C1.64006 10.5449 1.95869 10.5842 2.2338 10.7291C2.35691 10.7873 2.47431 10.8568 2.58446 10.9368C3.72144 11.7084 5.06112 12.1268 6.43514 12.1392C7.80917 12.1517 9.15623 11.7578 10.307 11.007C10.5298 10.829 10.7856 10.697 11.0596 10.6185C11.3124 10.5449 11.5825 10.5581 11.8269 10.6558C12.0713 10.7536 12.276 10.9304 12.4083 11.158C12.7455 11.6975 12.7401 12.237 12.3274 12.6631C11.6931 13.3055 10.9263 13.8016 10.0805 14.117C9.25778 14.4121 8.40149 14.6033 7.53144 14.6862C7.66361 14.8291 7.72565 14.8993 7.80117 14.9829C8.98262 16.1697 10.1668 17.3485 11.3428 18.5407C11.5312 18.7101 11.6594 18.9362 11.708 19.1848C11.7567 19.4334 11.7232 19.6912 11.6126 19.9191C11.498 20.168 11.3125 20.3776 11.0793 20.5216C10.8461 20.6655 10.5755 20.7374 10.3016 20.7283C9.98014 20.7015 9.68102 20.5529 9.46545 20.3129C8.57262 19.4174 7.6663 18.5353 6.79236 17.6155C6.5388 17.3458 6.41742 17.3997 6.19354 17.6155C5.29442 18.538 4.3863 19.4497 3.46919 20.3507C3.29917 20.5385 3.0717 20.6648 2.82232 20.7097C2.57294 20.7546 2.31571 20.7156 2.09084 20.5988C1.84659 20.4855 1.64027 20.3041 1.49671 20.0763C1.35315 19.8485 1.27846 19.5841 1.28163 19.3149C1.30721 18.9818 1.46212 18.672 1.71321 18.4517C2.88027 17.2864 4.04913 16.1176 5.21979 14.9451C5.30611 14.8912 5.37624 14.8156 5.48953 14.6889Z" fill="currentColor"></path>
    <path d="M6.45653 10.6267C5.42865 10.6207 4.42568 10.3097 3.57481 9.73296C2.72394 9.15623 2.0635 8.33982 1.67724 7.38725C1.29097 6.43469 1.19628 5.38887 1.40517 4.38241C1.61406 3.37595 2.11712 2.45419 2.85056 1.73402C3.584 1.01384 4.51478 0.52769 5.52488 0.337206C6.53498 0.146722 7.5789 0.260486 8.52426 0.664074C9.46962 1.06766 10.2738 1.74289 10.8349 2.60415C11.396 3.4654 11.6887 4.47388 11.6759 5.5017C11.6582 6.87179 11.0996 8.17931 10.1219 9.1393C9.14421 10.0993 7.82671 10.6339 6.45653 10.6267ZM9.03252 5.43427C9.03144 4.9318 8.88125 4.44096 8.60098 4.02392C8.3207 3.60687 7.92296 3.2824 7.45812 3.0916C6.99329 2.9008 6.48228 2.85226 5.98983 2.95213C5.49739 3.05199 5.04566 3.29577 4.69188 3.65258C4.3381 4.00939 4.09818 4.46318 4.00251 4.95646C3.90684 5.44974 3.95974 5.96031 4.15449 6.42351C4.34924 6.8867 4.67709 7.28167 5.0965 7.55838C5.51592 7.83509 6.00802 7.98109 6.51048 7.97789C6.8432 7.97683 7.17244 7.91015 7.47936 7.78169C7.78627 7.65322 8.06484 7.46547 8.2991 7.2292C8.53336 6.99294 8.71873 6.71278 8.84458 6.40478C8.97043 6.09678 9.03429 5.76698 9.03252 5.43427Z" fill="currentColor"></path>
  </symbol>
  <symbol xmlns="http://www.w3.org/2000/svg" viewBox="0 0 14 14" id="ic_phone">
    <path d="M13.9933 11.0462C14.023 11.2734 13.9537 11.471 13.7858 11.639L11.8147 13.5953C11.7257 13.6941 11.6097 13.7781 11.4664 13.8472C11.3231 13.9164 11.1824 13.9609 11.0441 13.9806C11.0342 13.9806 11.0045 13.9831 10.9551 13.9881C10.9057 13.993 10.8415 13.9955 10.7625 13.9955C10.5747 13.9955 10.2708 13.9634 9.8509 13.8992C9.43098 13.8349 8.91721 13.6768 8.30961 13.4249C7.70186 13.1729 7.01271 12.795 6.24206 12.2911C5.4714 11.7873 4.65129 11.0956 3.7818 10.2162C3.09016 9.53443 2.51709 8.88231 2.06259 8.25986C1.60808 7.63736 1.2425 7.06182 0.965847 6.53321C0.689168 6.0046 0.481676 5.52539 0.343349 5.09559C0.205021 4.66579 0.111156 4.29527 0.0617534 3.98403C0.0123507 3.67279 -0.00741041 3.42825 0.00247014 3.2504C0.0123507 3.07255 0.0172909 2.97374 0.0172909 2.95398C0.037052 2.81565 0.0815145 2.67486 0.150678 2.53159C0.219842 2.38832 0.303827 2.27222 0.402632 2.1833L2.3738 0.21213C2.51213 0.0738025 2.67022 0.00463867 2.84807 0.00463867C2.97651 0.00463867 3.09014 0.0416907 3.18894 0.115795C3.28775 0.189899 3.37173 0.281294 3.4409 0.38998L5.02673 3.39861C5.11565 3.5567 5.14035 3.7296 5.10083 3.91734C5.06131 4.10507 4.97732 4.26315 4.84888 4.3916L4.12266 5.11782C4.10289 5.13758 4.0856 5.16969 4.07078 5.21416C4.05596 5.25862 4.04855 5.29567 4.04855 5.32531C4.08807 5.5328 4.177 5.76994 4.31533 6.03671C4.43389 6.27385 4.61668 6.56285 4.8637 6.90373C5.11071 7.24461 5.46147 7.63734 5.91597 8.08196C6.3606 8.53652 6.75582 8.8897 7.10164 9.1417C7.44739 9.39356 7.73649 9.57889 7.96868 9.69746C8.20087 9.81602 8.37872 9.88766 8.50221 9.91229L8.68742 9.94936C8.70718 9.94936 8.73936 9.94193 8.78378 9.92713C8.82824 9.91229 8.86035 9.89502 8.88014 9.87523L9.7249 9.01563C9.90285 8.85756 10.1102 8.77852 10.3474 8.77852C10.5154 8.77852 10.6487 8.80813 10.7475 8.86744H10.7623L13.6227 10.557C13.8303 10.6856 13.9538 10.8485 13.9933 11.0462Z" fill="currentColor"></path>
  </symbol>
  <symbol xmlns="http://www.w3.org/2000/svg" viewBox="0 0 28 28" id="ic_phone2">
    <path d="M20.5215 18.3137C20.2776 18.069 19.9878 17.8748 19.6687 17.7423C19.3497 17.6098 19.0076 17.5416 18.6621 17.5416C18.3166 17.5416 17.9745 17.6098 17.6554 17.7423C17.3364 17.8748 17.0466 18.069 16.8027 18.3137L15.534 19.5824C14.1054 18.6758 12.7819 17.6135 11.5877 16.4149C10.3917 15.2185 9.3296 13.8952 8.4202 12.4687L9.68895 11.1999C9.93367 10.9561 10.1278 10.6663 10.2603 10.3472C10.3928 10.0281 10.461 9.68606 10.461 9.34057C10.461 8.99508 10.3928 8.65299 10.2603 8.33392C10.1278 8.01485 9.93367 7.72507 9.68895 7.48119L7.2127 5.01369C6.97228 4.76816 6.68494 4.57347 6.36778 4.4412C6.05061 4.30892 5.71009 4.24175 5.36646 4.24369C5.02038 4.24285 4.67755 4.31044 4.35769 4.44259C4.03784 4.57473 3.74727 4.76883 3.50271 5.01369L2.31271 6.19494C1.7455 6.80479 1.32218 7.534 1.07385 8.32896C0.825519 9.12392 0.758496 9.96443 0.877706 10.7887C1.15771 14.0699 3.31021 18.0162 6.62646 21.3412C9.9427 24.6662 13.9327 26.8099 17.214 27.1249C17.4588 27.138 17.7041 27.138 17.949 27.1249C18.6553 27.1546 19.3604 27.0429 20.023 26.7965C20.6856 26.5501 21.2924 26.1739 21.8077 25.6899L22.989 24.4999C23.2338 24.2554 23.4279 23.9648 23.5601 23.645C23.6922 23.3251 23.7598 22.9823 23.759 22.6362C23.7609 22.2926 23.6937 21.952 23.5614 21.6349C23.4292 21.3177 23.2345 21.0304 22.989 20.7899L20.5215 18.3137ZM21.7552 23.2662L20.5652 24.4474C20.1252 24.8141 19.6116 25.082 19.059 25.233C18.5065 25.384 17.928 25.4145 17.3627 25.3224C14.519 25.0774 10.8965 23.0649 7.90395 20.0724C4.91145 17.0799 2.89896 13.4837 2.62771 10.6399C2.53335 10.0746 2.56271 9.49555 2.71377 8.94267C2.86483 8.38979 3.13399 7.87625 3.50271 7.43744L4.73646 6.24744C4.81822 6.16635 4.91518 6.10219 5.02179 6.05864C5.12839 6.0151 5.24255 5.99303 5.35771 5.99369C5.47286 5.99303 5.58702 6.0151 5.69362 6.05864C5.80023 6.10219 5.89719 6.16635 5.97895 6.24744L8.4552 8.74994C8.61817 8.91389 8.70965 9.13566 8.70965 9.36682C8.70965 9.59798 8.61817 9.81975 8.4552 9.98369L6.7052 11.7337C6.56826 11.87 6.48027 12.0477 6.45495 12.2392C6.42962 12.4308 6.46839 12.6253 6.56521 12.7924C7.61292 14.5761 8.88635 16.2171 10.354 17.6749C11.8118 19.1426 13.4528 20.416 15.2365 21.4637C15.4036 21.5605 15.5981 21.5993 15.7897 21.574C15.9812 21.5486 16.1589 21.4606 16.2952 21.3237L18.0452 19.5737C18.2091 19.4107 18.4309 19.3193 18.6621 19.3193C18.8932 19.3193 19.115 19.4107 19.279 19.5737L21.7552 22.0499C21.8363 22.1317 21.9005 22.2287 21.944 22.3353C21.9875 22.4419 22.0096 22.556 22.009 22.6712C22.0035 22.8947 21.9127 23.1076 21.7552 23.2662Z" fill="currentColor"></path>
    <path d="M23.275 4.71628C22.059 3.49563 20.6134 2.52776 19.0215 1.86849C17.4296 1.20921 15.723 0.871569 14 0.875026C13.7679 0.875026 13.5454 0.967214 13.3813 1.13131C13.2172 1.2954 13.125 1.51796 13.125 1.75003C13.125 1.98209 13.2172 2.20465 13.3813 2.36875C13.5454 2.53284 13.7679 2.62503 14 2.62503C15.5019 2.62497 16.989 2.92236 18.3754 3.50001C19.7618 4.07767 21.02 4.92416 22.0776 5.99065C23.1351 7.05713 23.971 8.32249 24.5369 9.71369C25.1029 11.1049 25.3877 12.5944 25.375 14.0963C25.375 14.3283 25.4672 14.5509 25.6313 14.715C25.7954 14.8791 26.0179 14.9713 26.25 14.9713C26.4821 14.9713 26.7046 14.8791 26.8687 14.715C27.0328 14.5509 27.125 14.3283 27.125 14.0963C27.1418 12.355 26.8097 10.6279 26.1485 9.01696C25.4873 7.40599 24.5103 5.9437 23.275 4.71628Z" fill="currentColor"></path>
    <path d="M18.295 9.72128C18.7916 10.2149 19.1844 10.8028 19.4504 11.4504C19.7164 12.0981 19.8501 12.7924 19.8437 13.4925C19.8437 13.7246 19.9359 13.9472 20.1 14.1113C20.2641 14.2754 20.4867 14.3675 20.7187 14.3675C20.9508 14.3675 21.1734 14.2754 21.3375 14.1113C21.5016 13.9472 21.5937 13.7246 21.5937 13.4925C21.6053 12.5659 21.4328 11.6463 21.0862 10.7869C20.7396 9.92747 20.2258 9.14543 19.5747 8.48612C18.9235 7.82682 18.1479 7.30336 17.2929 6.94612C16.4379 6.58888 15.5204 6.40496 14.5937 6.40503C14.3617 6.40503 14.1391 6.49722 13.975 6.66131C13.8109 6.82541 13.7188 7.04797 13.7188 7.28003C13.7188 7.51209 13.8109 7.73465 13.975 7.89875C14.1391 8.06284 14.3617 8.15503 14.5937 8.15503C15.2833 8.16023 15.9651 8.30122 16.6002 8.56996C17.2352 8.8387 17.8112 9.22993 18.295 9.72128Z" fill="currentColor"></path>
  </symbol>
  <symbol xmlns="http://www.w3.org/2000/svg" viewBox="0 0 26 26" id="ic_send">
    <path d="M0.40625 13C0.40625 6.04297 6.04297 0.40625 13 0.40625C19.957 0.40625 25.5938 6.04297 25.5938 13C25.5938 19.957 19.957 25.5938 13 25.5938C6.04297 25.5938 0.40625 19.957 0.40625 13ZM13 23.9688C19.0277 23.9688 23.9688 19.0887 23.9688 13C23.9688 6.97227 19.0887 2.03125 13 2.03125C6.97227 2.03125 2.03125 6.91133 2.03125 13C2.03125 19.0277 6.91133 23.9688 13 23.9688ZM13.6348 19.2715L19.4797 13.4316C19.7184 13.193 19.7184 12.807 19.4797 12.5684L13.6348 6.72852C13.3961 6.48984 13.0102 6.48984 12.7715 6.72852L12.4211 7.07891C12.1824 7.31758 12.1824 7.71367 12.4312 7.94727L16.773 12.1367H7.10938C6.77422 12.1367 6.5 12.4109 6.5 12.7461V13.2539C6.5 13.5891 6.77422 13.8633 7.10938 13.8633H16.773L12.4262 18.0527C12.1824 18.2914 12.1773 18.6824 12.416 18.9211L12.7664 19.2715C13.0102 19.5102 13.3961 19.5102 13.6348 19.2715Z" fill="currentColor"></path>
  </symbol>
  <symbol xmlns="http://www.w3.org/2000/svg" viewBox="0 0 19 16" id="ic_telegram">
    <path d="M1.55403 7.14254L17.4628 1.00867C18.2012 0.741916 18.846 1.18879 18.6068 2.30529L18.6082 2.30392L15.8994 15.0653C15.6987 15.97 15.161 16.19 14.4089 15.7638L10.2839 12.7237L8.29428 14.6404C8.07428 14.8604 7.88866 15.046 7.46241 15.046L7.75528 10.8482L15.4003 3.94154C15.733 3.64867 15.326 3.48367 14.8874 3.77517L5.43978 9.72342L1.36703 8.45292C0.482901 8.17242 0.463651 7.56879 1.55403 7.14254Z" fill="currentColor"></path>
  </symbol>
  <symbol xmlns="http://www.w3.org/2000/svg" viewBox="0 0 19 19" id="ic_time">
    <path d="M9.5 0.296875C4.41602 0.296875 0.296875 4.41602 0.296875 9.5C0.296875 14.584 4.41602 18.7031 9.5 18.7031C14.584 18.7031 18.7031 14.584 18.7031 9.5C18.7031 4.41602 14.584 0.296875 9.5 0.296875ZM9.5 16.9219C5.39941 16.9219 2.07812 13.6006 2.07812 9.5C2.07812 5.39941 5.39941 2.07812 9.5 2.07812C13.6006 2.07812 16.9219 5.39941 16.9219 9.5C16.9219 13.6006 13.6006 16.9219 9.5 16.9219ZM11.7934 13.0477L8.64277 10.758C8.52773 10.6727 8.46094 10.5391 8.46094 10.398V4.30469C8.46094 4.05977 8.66133 3.85938 8.90625 3.85938H10.0938C10.3387 3.85938 10.5391 4.05977 10.5391 4.30469V9.56309L13.018 11.3666C13.2184 11.5113 13.2592 11.7896 13.1145 11.99L12.4168 12.9512C12.2721 13.1479 11.9937 13.1924 11.7934 13.0477Z" fill="currentColor"></path>
  </symbol>
  <symbol xmlns="http://www.w3.org/2000/svg" viewBox="0 0 17 15" id="ic_twitter">
    <path d="M16.7169 2.50654C16.3269 3.09239 15.8503 3.61576 15.3035 4.05884C15.2346 4.11629 15.1793 4.18839 15.1418 4.26988C15.1042 4.35138 15.0853 4.44023 15.0864 4.52996V4.58423C15.0801 5.76081 14.8639 6.92683 14.4481 8.02752C14.0197 9.18277 13.3832 10.2497 12.5702 11.1755C11.4776 12.4193 10.0721 13.3481 8.49945 13.8655C7.46609 14.2009 6.38572 14.3687 5.29932 14.3626C3.5758 14.3624 1.88301 13.9063 0.392741 13.0405C0.339338 13.0101 0.2973 12.9632 0.273007 12.9067C0.248714 12.8503 0.243493 12.7875 0.258136 12.7278C0.273163 12.6691 0.307405 12.6172 0.355407 12.5802C0.403409 12.5432 0.462408 12.5233 0.523004 12.5238H0.935504C2.24529 12.527 3.52611 12.1384 4.61327 11.4078C3.96537 11.3029 3.35902 11.0212 2.86102 10.5937C2.36302 10.1662 1.99271 9.60949 1.7909 8.98495C1.78056 8.95368 1.77869 8.92022 1.78546 8.88799C1.79224 8.85575 1.80742 8.82588 1.82947 8.80141C1.85151 8.77694 1.87964 8.75873 1.911 8.74864C1.94235 8.73855 1.97582 8.73694 2.008 8.74397C2.20558 8.78114 2.40617 8.80004 2.60721 8.80041H2.6832C2.05702 8.51273 1.52757 8.04984 1.15886 7.46768C0.790141 6.88552 0.597946 6.20902 0.605504 5.51995C0.605728 5.48771 0.614298 5.45608 0.630379 5.42813C0.64646 5.40018 0.669504 5.37688 0.697267 5.36048C0.725031 5.34409 0.756568 5.33516 0.788806 5.33457C0.821044 5.33398 0.852885 5.34175 0.881228 5.35713C1.13592 5.49932 1.40922 5.60528 1.6932 5.67193C1.13188 5.11658 0.770826 4.39057 0.666699 3.60785C0.562572 2.82513 0.721263 2.02998 1.11787 1.3472C1.13288 1.32097 1.15402 1.29878 1.17949 1.28253C1.20496 1.26627 1.23399 1.25644 1.2641 1.25388C1.2942 1.25132 1.32448 1.2561 1.35233 1.26782C1.38018 1.27953 1.40477 1.29783 1.42399 1.32114C2.20813 2.29204 3.17928 3.09557 4.27982 3.68406C5.38036 4.27256 6.58788 4.63404 7.83076 4.74706H7.84813C7.86639 4.74653 7.88435 4.74229 7.90092 4.7346C7.91749 4.7269 7.93232 4.71592 7.94451 4.70231C7.95669 4.6887 7.96598 4.67275 7.97181 4.65544C7.97764 4.63813 7.97988 4.61981 7.9784 4.6016C7.92993 4.1659 7.95785 3.72508 8.0609 3.29897C8.20097 2.71976 8.48852 2.18665 8.89557 1.75144C9.30263 1.31623 9.81536 0.993729 10.3839 0.815288C10.7487 0.701339 11.1285 0.642792 11.5107 0.641604C12.3772 0.640605 13.2142 0.95641 13.8641 1.52956C13.9483 1.60489 14.0573 1.64661 14.1702 1.6468C14.2069 1.64602 14.2433 1.64091 14.2788 1.6316C14.8894 1.4773 15.4745 1.23524 16.0156 0.912985C16.048 0.893008 16.0858 0.883531 16.1238 0.885851C16.1617 0.888171 16.1981 0.902175 16.2278 0.925946C16.2575 0.949716 16.2791 0.982091 16.2897 1.01864C16.3003 1.05518 16.2994 1.09411 16.287 1.13009C16.1063 1.69844 15.7844 2.21163 15.3513 2.6216C15.7415 2.52858 16.1223 2.39995 16.4889 2.23733C16.5251 2.22336 16.5647 2.221 16.6023 2.2306C16.6399 2.24019 16.6736 2.26125 16.6987 2.29085C16.7237 2.32046 16.7389 2.35713 16.7422 2.39578C16.7455 2.43444 16.7366 2.47315 16.7169 2.50654Z" fill="currentColor"></path>
  </symbol>
  <symbol xmlns="http://www.w3.org/2000/svg" viewBox="0 0 28 28" id="ic_user">
    <path d="M13.7988 13.4877C15.6517 13.4877 17.256 12.8231 18.5672 11.5119C19.878 10.2009 20.5428 8.59682 20.5428 6.74364C20.5428 4.8911 19.8782 3.2868 18.567 1.97537C17.2558 0.66458 15.6515 0 13.7988 0C11.9456 0 10.3415 0.66458 9.03048 1.97558C7.71948 3.28658 7.05469 4.89089 7.05469 6.74364C7.05469 8.59682 7.71948 10.2011 9.03048 11.5121C10.3419 12.8229 11.9462 13.4877 13.7988 13.4877ZM10.1909 3.13577C11.1968 2.12982 12.3769 1.64084 13.7988 1.64084C15.2204 1.64084 16.4007 2.12982 17.4068 3.13577C18.4128 4.14193 18.902 5.32219 18.902 6.74364C18.902 8.16551 18.4128 9.34556 17.4068 10.3517C16.4007 11.3579 15.2204 11.8469 13.7988 11.8469C12.3773 11.8469 11.1973 11.3577 10.1909 10.3517C9.18472 9.34578 8.69552 8.16551 8.69552 6.74364C8.69552 5.32219 9.18472 4.14193 10.1909 3.13577Z" fill="currentColor"></path>
    <path d="M25.6008 21.5307C25.5629 20.9851 25.4865 20.3899 25.3739 19.7614C25.2602 19.1283 25.1139 18.5297 24.9387 17.9826C24.7576 17.4171 24.5117 16.8587 24.2073 16.3236C23.8918 15.7682 23.5209 15.2845 23.1048 14.8866C22.6696 14.4702 22.1369 14.1355 21.5208 13.8913C20.9068 13.6484 20.2264 13.5254 19.4986 13.5254C19.2128 13.5254 18.9364 13.6426 18.4025 13.9902C18.074 14.2045 17.6897 14.4523 17.2607 14.7263C16.8939 14.96 16.397 15.179 15.7833 15.3773C15.1845 15.571 14.5765 15.6693 13.9763 15.6693C13.3764 15.6693 12.7684 15.571 12.1692 15.3773C11.5561 15.1792 11.059 14.9603 10.6929 14.7266C10.268 14.455 9.88347 14.2072 9.55 13.99C9.01659 13.6424 8.74016 13.5251 8.45433 13.5251C7.72631 13.5251 7.04613 13.6484 6.4324 13.8915C5.81674 14.1353 5.28375 14.47 4.84817 14.8868C4.43203 15.285 4.06118 15.7684 3.74588 16.3236C3.44189 16.8587 3.1958 17.4169 3.01465 17.9828C2.83969 18.5299 2.69336 19.1283 2.57971 19.7614C2.46692 20.3891 2.39066 20.9844 2.35284 21.5313C2.31567 22.066 2.29688 22.6225 2.29688 23.1847C2.29688 24.6463 2.7615 25.8296 3.67773 26.7022C4.58264 27.5634 5.77978 28 7.23604 28H20.7182C22.174 28 23.3712 27.5634 24.2763 26.7022C25.1927 25.8302 25.6574 24.6466 25.6574 23.1845C25.6572 22.6203 25.6381 22.0639 25.6008 21.5307ZM23.1449 25.5134C22.547 26.0825 21.7532 26.3592 20.718 26.3592H7.23604C6.20061 26.3592 5.40679 26.0825 4.80908 25.5136C4.22268 24.9555 3.93771 24.1935 3.93771 23.1847C3.93771 22.6601 3.95501 22.142 3.98962 21.6447C4.02337 21.1568 4.09237 20.6208 4.1947 20.0513C4.29574 19.4888 4.42434 18.961 4.5773 18.4831C4.72406 18.0249 4.92422 17.5712 5.17245 17.1341C5.40936 16.7175 5.68194 16.3601 5.98272 16.0722C6.26406 15.8028 6.61867 15.5823 7.03652 15.417C7.42296 15.264 7.85726 15.1803 8.32872 15.1677C8.38619 15.1982 8.48851 15.2566 8.65428 15.3647C8.99159 15.5845 9.38039 15.8353 9.8102 16.1098C10.2947 16.4187 10.9189 16.6977 11.6647 16.9384C12.4271 17.1849 13.2047 17.3101 13.9765 17.3101C14.7483 17.3101 15.5261 17.1849 16.2881 16.9386C17.0345 16.6974 17.6585 16.4187 18.1436 16.1093C18.5835 15.8282 18.9614 15.5847 19.2987 15.3647C19.4644 15.2568 19.5668 15.1982 19.6242 15.1677C20.0959 15.1803 20.5302 15.264 20.9169 15.417C21.3345 15.5823 21.6891 15.803 21.9705 16.0722C22.2712 16.3599 22.5438 16.7173 22.7807 17.1343C23.0292 17.5712 23.2295 18.0251 23.3761 18.4829C23.5293 18.9614 23.6581 19.4891 23.7589 20.0511C23.861 20.6217 23.9302 21.1579 23.964 21.6449V21.6454C23.9988 22.1408 24.0163 22.6586 24.0165 23.1847C24.0163 24.1937 23.7313 24.9555 23.1449 25.5134Z" fill="currentColor"></path>
  </symbol>
  <symbol xmlns="http://www.w3.org/2000/svg" viewBox="0 0 17 19" id="ic_viber">
    <path d="M10.2401 0.815674H6.76645C5.15421 0.815674 3.60801 1.45613 2.46798 2.59616C1.32796 3.73618 0.687501 5.28238 0.687501 6.89462V9.49988C0.687016 10.6507 1.0132 11.778 1.62812 12.7507C2.24304 13.7234 3.12143 14.5016 4.16118 14.9948V17.8975C4.16222 17.9541 4.17976 18.0092 4.21166 18.056C4.24356 18.1028 4.28842 18.1393 4.34075 18.161C4.39308 18.1827 4.4506 18.1886 4.50624 18.178C4.56189 18.1675 4.61325 18.1409 4.65401 18.1016L7.17677 15.5788H10.2401C11.8524 15.5788 13.3986 14.9384 14.5386 13.7983C15.6786 12.6583 16.3191 11.1121 16.3191 9.49988V6.89462C16.3191 5.28238 15.6786 3.73618 14.5386 2.59616C13.3986 1.45613 11.8524 0.815674 10.2401 0.815674ZM12.5154 12.2094L11.647 13.0778C10.7221 13.9831 8.30789 12.9497 6.18026 10.7765C4.05263 8.60324 3.11908 6.16515 4.00921 5.25982L4.87763 4.3914C5.04783 4.23862 5.26913 4.1552 5.49783 4.15761C5.72653 4.16002 5.94602 4.24809 6.11296 4.40442L7.38085 5.70706C7.48155 5.81097 7.55417 5.93878 7.59187 6.07848C7.62958 6.21818 7.63113 6.36518 7.5964 6.50564C7.56166 6.64611 7.49177 6.77544 7.3933 6.88146C7.29483 6.98748 7.17101 7.06672 7.03349 7.11173C6.82964 7.17427 6.65772 7.31292 6.55341 7.49889C6.44911 7.68486 6.42044 7.90386 6.47335 8.11041C6.69046 9.07436 7.91493 10.2815 8.82677 10.5181C9.03235 10.5671 9.24873 10.5394 9.43537 10.4403C9.62201 10.3412 9.76611 10.1774 9.84066 9.97969C9.88882 9.84177 9.97167 9.71858 10.0812 9.62195C10.1908 9.52533 10.3234 9.45854 10.4662 9.42801C10.6091 9.39747 10.7574 9.40422 10.8969 9.44761C11.0364 9.491 11.1624 9.56956 11.2627 9.67574L12.5284 10.9784C12.6804 11.1481 12.7634 11.3686 12.761 11.5964C12.7586 11.8242 12.671 12.0429 12.5154 12.2094ZM9.29355 4.94067C9.2072 4.94026 9.1209 4.94534 9.0352 4.95587C8.99742 4.96001 8.9592 4.95666 8.92272 4.94602C8.88623 4.93538 8.8522 4.91767 8.82257 4.89388C8.79293 4.87009 8.76827 4.84069 8.75 4.80737C8.73172 4.77406 8.72019 4.73746 8.71605 4.69969C8.71192 4.66191 8.71526 4.62369 8.7259 4.58721C8.73654 4.55072 8.75426 4.51669 8.77805 4.48706C8.80184 4.45742 8.83123 4.43276 8.86455 4.41449C8.89787 4.39621 8.93446 4.38468 8.97224 4.38054C9.07889 4.36826 9.18619 4.36246 9.29355 4.36317C10.0619 4.3626 10.799 4.66711 11.3429 5.20978C11.8868 5.75245 12.1929 6.48887 12.1941 7.25719C12.1948 7.36454 12.189 7.47185 12.1767 7.5785C12.1726 7.61628 12.161 7.65287 12.1428 7.68619C12.1245 7.71951 12.0998 7.7489 12.0702 7.77269C12.0406 7.79648 12.0065 7.8142 11.97 7.82484C11.9336 7.83547 11.8953 7.83882 11.8576 7.83469C11.8198 7.83055 11.7832 7.81902 11.7499 7.80074C11.7166 7.78247 11.6872 7.75781 11.6634 7.72817C11.6396 7.69854 11.6219 7.66451 11.6112 7.62802C11.6006 7.59154 11.5972 7.55332 11.6014 7.51554C11.6108 7.42974 11.6159 7.34351 11.6166 7.25719C11.6154 6.64203 11.3701 6.0525 10.9345 5.61813C10.4989 5.18376 9.9087 4.9401 9.29355 4.94067ZM11.0304 7.25719C11.0241 7.32973 10.9909 7.39727 10.9372 7.44648C10.8835 7.4957 10.8134 7.523 10.7406 7.523C10.6677 7.523 10.5976 7.4957 10.5439 7.44648C10.4903 7.39727 10.457 7.32973 10.4507 7.25719C10.4507 6.95029 10.3288 6.65595 10.1118 6.43894C9.89478 6.22193 9.60045 6.10002 9.29355 6.10002C9.25338 6.1035 9.21293 6.09859 9.17475 6.0856C9.13658 6.07262 9.10152 6.05184 9.07181 6.02459C9.04209 5.99733 9.01836 5.9642 9.00213 5.92729C8.9859 5.89038 8.97752 5.8505 8.97752 5.81018C8.97752 5.76986 8.9859 5.72998 9.00213 5.69307C9.01836 5.65616 9.04209 5.62303 9.07181 5.59577C9.10152 5.56852 9.13658 5.54774 9.17475 5.53476C9.21293 5.52177 9.25338 5.51686 9.29355 5.52034C9.75419 5.52034 10.196 5.70333 10.5217 6.02905C10.8474 6.35478 11.0304 6.79655 11.0304 7.25719ZM13.2384 8.19725C13.2319 8.23672 13.2174 8.27444 13.1958 8.30806C13.1741 8.34168 13.1458 8.37047 13.1125 8.39264C13.0792 8.41481 13.0417 8.42989 13.0024 8.43692C12.963 8.44395 12.9226 8.4428 12.8837 8.43352C12.8448 8.42425 12.8083 8.40705 12.7763 8.38301C12.7444 8.35897 12.7177 8.3286 12.698 8.2938C12.6783 8.259 12.666 8.22051 12.6619 8.18074C12.6577 8.14097 12.6618 8.10077 12.6739 8.06265C12.7366 7.80024 12.7679 7.53132 12.7672 7.26153C12.7672 6.34025 12.4013 5.45671 11.7498 4.80526C11.0984 4.15382 10.2148 3.78784 9.29355 3.78784C9.20454 3.78784 9.11335 3.78784 9.02434 3.78784C8.98642 3.7907 8.94831 3.78605 8.91219 3.77417C8.87606 3.7623 8.84263 3.74342 8.81381 3.71862C8.75558 3.66854 8.71964 3.59739 8.71388 3.52081C8.70812 3.44422 8.73302 3.36849 8.7831 3.31027C8.83318 3.25205 8.90434 3.2161 8.98092 3.21034C9.08513 3.20166 9.18934 3.19732 9.29355 3.19732C10.3692 3.19904 11.4001 3.62754 12.1601 4.38873C12.9201 5.14991 13.3469 6.18157 13.3469 7.25719C13.347 7.57368 13.3106 7.88912 13.2384 8.19725Z" fill="currentColor"></path>
  </symbol>
  <symbol xmlns="http://www.w3.org/2000/svg" viewBox="0 0 21 13" id="ic_vk">
    <path d="M19.9528 12.3587C19.4727 12.4261 17.1395 12.3587 17.0181 12.3587C16.4149 12.3648 15.8335 12.1332 15.3997 11.714C14.906 11.2393 14.461 10.716 13.9889 10.2224C13.8456 10.0719 13.6915 9.93219 13.5277 9.8043C13.142 9.51029 12.7616 9.57772 12.5809 10.0309C12.4394 10.522 12.3419 11.0248 12.2896 11.5333C12.2812 11.7475 12.1881 11.9496 12.0308 12.0952C11.8736 12.2409 11.6649 12.3182 11.4507 12.3102C11.1324 12.3263 10.8141 12.3344 10.4985 12.3263C9.35051 12.3204 8.22014 12.0431 7.19967 11.5171C6.09801 10.9015 5.13774 10.0616 4.38092 9.05174C3.17002 7.4528 2.12354 5.73577 1.25737 3.92674C1.21151 3.83503 0.302496 1.90101 0.280917 1.812C0.22456 1.68527 0.21918 1.5417 0.265892 1.4111C0.312605 1.28051 0.407822 1.17292 0.531773 1.11069C0.693615 1.04865 3.69039 1.11069 3.73894 1.11069C3.9621 1.10856 4.18008 1.17782 4.36109 1.30836C4.54209 1.43889 4.67663 1.62387 4.74506 1.83628C5.2993 3.24925 6.0562 4.57405 6.99197 5.76904C7.12249 5.9301 7.27611 6.07099 7.44783 6.18713C7.49208 6.22985 7.54695 6.25998 7.60675 6.27439C7.66655 6.2888 7.72911 6.28697 7.78796 6.26909C7.84682 6.25121 7.89983 6.21794 7.94151 6.1727C7.9832 6.12747 8.01204 6.07192 8.02506 6.01181C8.14362 5.62181 8.21338 5.21863 8.23276 4.81147C8.24894 4.00226 8.23276 3.46279 8.1869 2.65358C8.20321 2.37782 8.11011 2.10675 7.92781 1.8992C7.74551 1.69165 7.48872 1.56436 7.21315 1.54496C6.97579 1.5045 6.94342 1.31029 7.10796 1.11608C7.42355 0.714173 7.86052 0.649437 8.33526 0.62516C9.05276 0.5847 9.77296 0.62516 10.4932 0.62516H10.6496C10.9658 0.624374 11.2812 0.656008 11.591 0.719568C11.7721 0.756662 11.9364 0.851279 12.0594 0.989321C12.1823 1.12736 12.2574 1.30144 12.2734 1.48562C12.3098 1.68944 12.326 1.89633 12.322 2.10332C12.3031 2.98536 12.2599 3.8674 12.2491 4.75213C12.2427 5.10159 12.2744 5.45071 12.3435 5.79332C12.4487 6.26266 12.7697 6.38134 13.0988 6.03878C13.5089 5.59862 13.8849 5.12792 14.2236 4.63075C14.8326 3.7255 15.3341 2.75239 15.718 1.73108C15.9257 1.20779 16.0848 1.0918 16.6485 1.0918H19.8287C20.0185 1.08864 20.2076 1.1141 20.3898 1.16733C20.4541 1.18447 20.5142 1.21465 20.5663 1.25598C20.6185 1.29731 20.6615 1.34892 20.6929 1.4076C20.7243 1.46628 20.7432 1.53078 20.7486 1.5971C20.754 1.66342 20.7457 1.73014 20.7243 1.79312C20.5383 2.46979 20.2192 3.10255 19.7856 3.6543C19.1382 4.56871 18.4585 5.46154 17.7949 6.35167C17.711 6.46814 17.6344 6.58976 17.5657 6.71582C17.3175 7.16358 17.3364 7.41713 17.6951 7.79477C18.2724 8.38819 18.8901 8.94654 19.4457 9.55615C19.8555 10.0003 20.2256 10.4796 20.5516 10.9884C20.9616 11.6466 20.7108 12.2508 19.9528 12.3587Z" fill="currentColor"></path>
  </symbol>
  <symbol xmlns="http://www.w3.org/2000/svg" viewBox="0 0 18 18" id="ic_whatsapp">
    <path d="M15.3484 2.65016C13.8506 1.13537 11.8606 0.206011 9.7376 0.0298597C7.61463 -0.146291 5.49863 0.442379 3.77163 1.68959C2.04464 2.9368 0.820456 4.76036 0.320108 6.83104C-0.18024 8.90171 0.0762177 11.083 1.04318 12.9812L0.0958105 17.5807C0.0856667 17.6266 0.0852736 17.6742 0.0946568 17.7203C0.10404 17.7664 0.122991 17.81 0.150284 17.8483C0.189371 17.9063 0.245243 17.951 0.310424 17.9764C0.375606 18.0018 0.446988 18.0067 0.515021 17.9904L5.01502 16.9223C6.90798 17.8639 9.07366 18.1032 11.1266 17.5977C13.1795 17.0922 14.9864 15.8747 16.2257 14.1618C17.465 12.4489 18.0564 10.3518 17.8944 8.24381C17.7325 6.1358 16.8278 4.15364 15.3413 2.65016H15.3484ZM13.9416 13.8694C12.9057 14.9034 11.5718 15.5868 10.1273 15.8234C8.68292 16.0601 7.20066 15.838 5.88897 15.1886L5.25897 14.8759L2.49502 15.5296V15.4941L3.07765 12.7065L2.76976 12.1002C2.09907 10.7849 1.86226 9.291 2.09331 7.8328C2.32436 6.37461 3.01139 5.02708 4.05581 3.98358C5.36722 2.67353 7.14505 1.93767 8.9987 1.93767C10.8524 1.93767 12.6302 2.67353 13.9416 3.98358L13.9724 4.02621C15.2668 5.34042 15.9893 7.1129 15.9827 8.95748C15.976 10.8021 15.2407 12.5693 13.9369 13.8741L13.9416 13.8694Z" fill="currentColor"></path>
    <path d="M13.6946 11.8421C13.3559 12.375 12.8183 13.0263 12.148 13.1897C10.9638 13.4739 9.16143 13.1897 6.90433 11.1031L6.87591 11.0771C4.91248 9.24391 4.39143 7.71628 4.50748 6.50602C4.57617 5.81681 5.14932 5.19628 5.63248 4.78892C5.7093 4.72414 5.80021 4.67824 5.89793 4.65487C5.99566 4.6315 6.09749 4.63132 6.1953 4.65433C6.29311 4.67735 6.38418 4.72292 6.46124 4.78741C6.53829 4.85191 6.59919 4.93353 6.63906 5.02576L7.36617 6.66944C7.41364 6.77524 7.43144 6.89197 7.41767 7.00711C7.4039 7.12226 7.35909 7.23149 7.28801 7.32312L6.91854 7.7968C6.84174 7.89513 6.79599 8.01412 6.78714 8.13856C6.77828 8.26301 6.80671 8.38728 6.8688 8.49549C7.21976 9.01276 7.63969 9.4797 8.11696 9.88338C8.63047 10.3776 9.21282 10.7948 9.84591 11.1221C9.96146 11.1686 10.0882 11.1798 10.2101 11.154C10.332 11.1283 10.4435 11.0669 10.5304 10.9776L10.9543 10.5465C11.035 10.4598 11.1381 10.3971 11.2522 10.3653C11.3663 10.3335 11.487 10.334 11.6009 10.3665L13.3299 10.8615C13.4278 10.8894 13.5179 10.94 13.5927 11.0091C13.6675 11.0782 13.725 11.164 13.7605 11.2595C13.796 11.3549 13.8085 11.4574 13.7971 11.5586C13.7856 11.6598 13.7505 11.7569 13.6946 11.8421Z" fill="currentColor"></path>
  </symbol>
  <symbol xmlns="http://www.w3.org/2000/svg" viewBox="0 0 17 13" id="ic_youtube">
    <path d="M16.3639 2.53122C16.0339 1.50649 14.9418 0.900764 13.9279 0.759646C10.3139 0.375365 6.66934 0.375365 3.05531 0.759646C2.05012 0.900764 0.958079 1.51517 0.628079 2.53122C0.113557 5.15273 0.113557 7.84926 0.628079 10.4708C0.966763 11.4933 2.0588 12.1012 3.07268 12.2423C6.68682 12.6244 10.3312 12.6244 13.9453 12.2423C14.9505 12.1012 16.0425 11.4846 16.3725 10.4708C16.8842 7.8487 16.8813 5.15217 16.3639 2.53122ZM6.52683 9.66096V3.33886L11.6744 6.49991C9.93972 7.5659 8.25498 8.60366 6.52683 9.66096Z" fill="currentColor"></path>
  </symbol>
  <symbol xmlns="http://www.w3.org/2000/svg" viewBox="0 0 40 40" id="ic_zoom">
    <path d="M22.9977 17C22.9977 16.7348 22.8924 16.4804 22.7049 16.2929C22.5173 16.1054 22.263 16 21.9977 16H17.9977V12C17.9977 11.7348 17.8924 11.4804 17.7049 11.2929C17.5173 11.1054 17.263 11 16.9977 11C16.7325 11 16.4782 11.1054 16.2906 11.2929C16.1031 11.4804 15.9977 11.7348 15.9977 12V16H11.9977C11.7325 16 11.4782 16.1054 11.2906 16.2929C11.1031 16.4804 10.9977 16.7348 10.9977 17C10.9977 17.2652 11.1031 17.5196 11.2906 17.7071C11.4782 17.8946 11.7325 18 11.9977 18H15.9977V22C15.9977 22.2652 16.1031 22.5196 16.2906 22.7071C16.4782 22.8946 16.7325 23 16.9977 23C17.263 23 17.5173 22.8946 17.7049 22.7071C17.8924 22.5196 17.9977 22.2652 17.9977 22V18H21.9977C22.263 18 22.5173 17.8946 22.7049 17.7071C22.8924 17.5196 22.9977 17.2652 22.9977 17ZM16.9977 6C19.0884 5.99964 21.1359 6.59509 22.9003 7.71657C24.6647 8.83806 26.073 10.4391 26.9602 12.3322C27.8473 14.2253 28.1766 16.3321 27.9095 18.4056C27.6423 20.4791 26.7898 22.4336 25.4517 24.04L33.7057 32.292C33.8829 32.4684 33.9876 32.7047 33.9992 32.9544C34.0107 33.2042 33.9283 33.4492 33.7682 33.6412C33.6081 33.8332 33.3819 33.9582 33.1341 33.9917C32.8864 34.0252 32.6351 33.9646 32.4297 33.822L32.2897 33.708L24.0378 25.454C22.6801 26.5842 21.0703 27.3708 19.3445 27.7473C17.6186 28.1237 15.8274 28.0791 14.1225 27.617C12.4175 27.1549 10.8489 26.289 9.54939 25.0925C8.24984 23.896 7.25755 22.4042 6.65645 20.7431C6.05535 19.0821 5.86313 17.3007 6.09603 15.5497C6.32894 13.7986 6.98013 12.1294 7.99451 10.6833C9.0089 9.23709 10.3567 8.05649 11.9238 7.24132C13.4909 6.42614 15.2313 6.00036 16.9977 6ZM16.9977 8C14.6108 8 12.3216 8.94821 10.6338 10.636C8.94596 12.3239 7.99775 14.6131 7.99775 17C7.99775 19.3869 8.94596 21.6761 10.6338 23.364C12.3216 25.0518 14.6108 26 16.9977 26C19.3847 26 21.6739 25.0518 23.3617 23.364C25.0495 21.6761 25.9977 19.3869 25.9977 17C25.9977 14.6131 25.0495 12.3239 23.3617 10.636C21.6739 8.94821 19.3847 8 16.9977 8Z" fill="currentColor"></path>
  </symbol>
</svg>